<?xml version="1.0" encoding="utf-8" ?>
<svg xmlns="http://www.w3.org/2000/svg" xmlns:xlink="http://www.w3.org/1999/xlink" width="619" height="619">
	<path fill="#FCC550" transform="matrix(0.619 0 0 0.61962 -0.00390625 0)" d="M495.306 271.542C494.526 277.424 484.659 296.855 481.463 303.243L476.005 303.214C479.603 291.374 486.796 280.426 495.306 271.542Z"/>
	<path fill="#AD2A0C" transform="matrix(0.619 0 0 0.61962 -0.00390625 0)" d="M504.172 262.404C513.156 267.476 537.093 292.367 539.879 302.249Q540.034 302.811 540.17 303.378C532.965 303.844 525.304 304.412 518.118 303.711C516.472 296.015 514.213 288.756 511.271 281.462C508.78 275.287 505.534 268.929 504.172 262.404Z"/>
	<path fill="#0A1E32" transform="matrix(0.619 0 0 0.61962 -0.00390625 0)" d="M481.463 303.243C493.663 303.044 505.95 302.621 518.118 303.711C525.304 304.412 532.965 303.844 540.17 303.378C540.844 306.475 541.772 309.421 543.2 312.263C539.973 312.707 536.618 312.706 533.441 313.208C527.647 313.907 521.422 313.371 515.572 313.337C503.034 313.265 490.458 313.017 477.926 313.396C471.173 313.454 464.438 313.257 457.689 313.047L462.789 303.443C467.167 303.155 471.616 303.26 476.005 303.214L481.463 303.243Z"/>
	<path fill="#FE7F20" transform="matrix(0.619 0 0 0.61962 -0.00390625 0)" d="M495.306 271.542C498.192 268.432 501.028 265.259 504.172 262.404C505.534 268.929 508.78 275.287 511.271 281.462C514.213 288.756 516.472 296.015 518.118 303.711C505.95 302.621 493.663 303.044 481.463 303.243C484.659 296.855 494.526 277.424 495.306 271.542Z"/>
	<path fill="#AD2A0C" transform="matrix(0.619 0 0 0.61962 -0.00390625 0)" d="M397.487 549.855C398.372 541.282 397.035 532.521 397.268 523.9C397.936 499.173 405.583 467.356 422.303 448.778L422.896 452.439C428.187 477.665 433.697 494.195 444.794 517.349C444.567 517.583 444.344 517.821 444.114 518.052C441.341 520.842 437.309 522.74 434.191 525.197C424.685 532.686 417.385 544.79 412.755 555.827C411.293 559.311 409.192 578.406 407.167 578.623L406.842 578.074C400.717 570.386 399.371 559.22 397.487 549.855Z"/>
	<path fill="#FE7F20" transform="matrix(0.619 0 0 0.61962 -0.00390625 0)" d="M397.487 549.855C398.372 541.282 397.035 532.521 397.268 523.9C397.936 499.173 405.583 467.356 422.303 448.778L422.896 452.439C407.721 479.379 401.335 513.347 403.025 544.033C403.656 555.503 405.733 566.692 406.842 578.074C400.717 570.386 399.371 559.22 397.487 549.855Z"/>
	<path fill="#FE7F20" transform="matrix(0.619 0 0 0.61962 -0.00390625 0)" d="M486.494 548.533L487.324 548.117C489.223 549.021 489.986 549.6 490.684 551.687C492.914 558.359 492.251 570.619 499.596 574.299C501.241 575.123 502.996 575.521 504.769 574.776C508.27 573.305 510.467 568.081 511.655 564.664C512.79 561.399 513.667 550.259 516.108 548.949C516.384 548.801 516.789 548.745 517.097 548.688C519.856 548.612 522.602 548.678 525.36 548.748C529.584 548.541 533.865 548.239 538.082 548.683C540.065 561.469 542.355 574.385 542.401 587.36C542.497 614.04 531.938 643.215 516.26 664.737C512.224 670.279 507.684 674.989 502.513 679.471C479.271 659.616 466.09 625.284 463.759 595.279C463.049 586.145 463.422 577.002 463.938 567.871L464.093 567.475C462.532 561.342 461.667 555.128 460.977 548.844L466.914 548.615C470.955 548.253 475.114 548.467 479.172 548.491L486.494 548.533ZM460.977 548.844C461.667 555.128 462.532 561.342 464.093 567.475C465.644 561.296 466.264 554.936 466.914 548.615L460.977 548.844Z"/>
	<path fill="#FCC550" transform="matrix(0.619 0 0 0.61962 -0.00390625 0)" d="M479.172 548.491L486.494 548.533C484.726 548.706 482.408 548.529 481.23 550.034C480.277 551.25 481.048 572.893 481.298 575.63Q481.784 581.086 483.065 586.411C485.26 595.373 492.634 610.526 500.5 615.63C501.791 616.467 502.917 616.686 504.408 616.225C510.102 614.46 517.281 598.641 519.321 593.309C524.868 578.809 524.64 564.806 525.303 549.649C526.09 551.11 526.611 552.539 526.974 554.153C533.477 583.038 517.85 609.754 503.103 633.237Q500.581 630.087 498.142 626.872C479.25 601.64 474.699 579.213 479.172 548.491Z"/>
	<path fill="#FEED85" transform="matrix(0.619 0 0 0.61962 -0.00390625 0)" d="M486.494 548.533L487.324 548.117C483.955 563.624 485.893 584.034 494.524 597.678C496.261 600.424 498.699 603.467 502.081 604.119C504.005 604.49 505.868 603.934 507.413 602.76C514.435 597.424 516.735 581.549 517.583 573.401C518.065 568.769 519.245 553.432 517.882 549.315L517.097 548.688C519.856 548.612 522.602 548.678 525.36 548.748L525.303 549.649C524.64 564.806 524.868 578.809 519.321 593.309C517.281 598.641 510.102 614.46 504.408 616.225C502.917 616.686 501.791 616.467 500.5 615.63C492.634 610.526 485.26 595.373 483.065 586.411Q481.784 581.086 481.298 575.63C481.048 572.893 480.277 551.25 481.23 550.034C482.408 548.529 484.726 548.706 486.494 548.533Z"/>
	<path fill="#FEFEFE" transform="matrix(0.619 0 0 0.61962 -0.00390625 0)" d="M487.324 548.117C489.223 549.021 489.986 549.6 490.684 551.687C492.914 558.359 492.251 570.619 499.596 574.299C501.241 575.123 502.996 575.521 504.769 574.776C508.27 573.305 510.467 568.081 511.655 564.664C512.79 561.399 513.667 550.259 516.108 548.949C516.384 548.801 516.789 548.745 517.097 548.688L517.882 549.315C519.245 553.432 518.065 568.769 517.583 573.401C516.735 581.549 514.435 597.424 507.413 602.76C505.868 603.934 504.005 604.49 502.081 604.119C498.699 603.467 496.261 600.424 494.524 597.678C485.893 584.034 483.955 563.624 487.324 548.117Z"/>
	<path fill="#9EBCD7" transform="matrix(0.619 0 0 0.61962 -0.00390625 0)" d="M543.2 312.263C551.998 318.797 553.603 326.313 558.231 335.535C572.443 361.585 576.459 398.804 574.686 427.961C575.219 430.166 575.73 432.502 576.77 434.53C578.212 437.343 581.72 441.362 582.322 444.292C582.521 445.264 582.013 446.624 581.744 447.563L581.239 449.818C576.316 473.202 571.625 497.078 559.353 517.991C555.15 518.065 550.442 518.521 547.332 521.702C546.388 522.668 545.914 523.551 545.658 524.886L540.149 524.941Q539.932 531.713 540.032 538.487L545.337 538.576C544.427 542.056 544.18 544.836 544.817 548.386L538.082 548.683C533.865 548.239 529.584 548.541 525.36 548.748C522.602 548.678 519.856 548.612 517.097 548.688C516.789 548.745 516.384 548.801 516.108 548.949C513.667 550.259 512.79 561.399 511.655 564.664C510.467 568.081 508.27 573.305 504.769 574.776C502.996 575.521 501.241 575.123 499.596 574.299C492.251 570.619 492.914 558.359 490.684 551.687C489.986 549.6 489.223 549.021 487.324 548.117L486.494 548.533L479.172 548.491C475.114 548.467 470.955 548.253 466.914 548.615L460.977 548.844C460.463 545.201 460.036 541.85 460.255 538.159C459.715 533.774 459.311 529.27 459.732 524.861C458.954 522.166 457.696 519.636 456.547 517.083C452.645 517.006 448.669 516.852 444.794 517.349C433.697 494.195 428.187 477.665 422.896 452.439L422.303 448.778C422.309 447.838 422.027 446.023 422.655 445.322C423.844 443.995 425.923 443.285 427.549 442.647C429.129 442.027 430.319 441.129 431.637 440.081C433.566 449.12 435.182 458.308 437.554 467.241C441.902 483.618 448.147 499.182 454.951 514.663C457.375 514.633 459.924 514.436 462.331 514.707C461.107 512.044 460.063 509.26 458.941 506.55C463.81 506.204 469.106 505.822 473.96 506.302Q470.319 498.121 467.176 489.735C462.096 476.431 457.442 462.939 454.576 448.965C448.143 417.602 450.1 380.782 460.989 350.644C464.941 339.708 471.044 329.647 475.788 319.046L477.926 313.396C490.458 313.017 503.034 313.265 515.572 313.337C521.422 313.371 527.647 313.907 533.441 313.208C536.618 312.706 539.973 312.707 543.2 312.263ZM546.476 515.099C540.239 514.66 519.517 516.461 515.491 514C513.768 511.202 514.546 508.102 514.916 505.017C515.479 490.876 514.493 476.56 515.41 462.459C514.263 457.715 513.144 454.003 508.734 451.246C505.923 449.489 502.261 448.693 499.007 449.467C496.079 450.163 493.877 452.111 492.419 454.7C487.623 463.215 490.223 493.981 490.264 505.222L490.438 514.6C486.567 514.65 482.589 514.904 478.728 514.731C473.526 514.597 467.356 516.013 462.331 514.707C459.924 514.436 457.375 514.633 454.951 514.663C448.147 499.182 441.902 483.618 437.554 467.241C435.182 458.308 433.566 449.12 431.637 440.081C430.319 441.129 429.129 442.027 427.549 442.647C425.923 443.285 423.844 443.995 422.655 445.322C422.027 446.023 422.309 447.838 422.303 448.778L422.896 452.439C428.187 477.665 433.697 494.195 444.794 517.349C448.669 516.852 452.645 517.006 456.547 517.083C457.696 519.636 458.954 522.166 459.732 524.861C459.311 529.27 459.715 533.774 460.255 538.159C460.036 541.85 460.463 545.201 460.977 548.844L466.914 548.615C470.955 548.253 475.114 548.467 479.172 548.491L486.494 548.533L487.324 548.117C489.223 549.021 489.986 549.6 490.684 551.687C492.914 558.359 492.251 570.619 499.596 574.299C501.241 575.123 502.996 575.521 504.769 574.776C508.27 573.305 510.467 568.081 511.655 564.664C512.79 561.399 513.667 550.259 516.108 548.949C516.384 548.801 516.789 548.745 517.097 548.688C519.856 548.612 522.602 548.678 525.36 548.748C529.584 548.541 533.865 548.239 538.082 548.683L544.817 548.386C544.18 544.836 544.427 542.056 545.337 538.576L540.032 538.487Q539.932 531.713 540.149 524.941L545.658 524.886C545.914 523.551 546.388 522.668 547.332 521.702C550.442 518.521 555.15 518.065 559.353 517.991C571.625 497.078 576.316 473.202 581.239 449.818L581.744 447.563C582.013 446.624 582.521 445.264 582.322 444.292C581.72 441.362 578.212 437.343 576.77 434.53C575.73 432.502 575.219 430.166 574.686 427.961C571.74 436.201 571.51 445.914 569.827 454.526C567.638 465.723 556.307 510.769 547.76 514.624C547.279 514.84 547.009 514.915 546.476 515.099Z"/>
	<path fill="#5B85B0" transform="matrix(0.619 0 0 0.61962 -0.00390625 0)" d="M490.264 505.222L490.438 514.6C486.567 514.65 482.589 514.904 478.728 514.731C477.107 512.086 475.872 509.057 474.528 506.254C479.925 506.444 484.948 506.204 490.264 505.222Z"/>
	<path fill="#CCE0F5" transform="matrix(0.619 0 0 0.61962 -0.00390625 0)" d="M477.926 313.396C490.458 313.017 503.034 313.265 515.572 313.337C521.422 313.371 527.647 313.907 533.441 313.208C534.477 315.18 535.275 316.896 535.708 319.089C521.426 319.36 507.078 319.153 492.794 319.012C487.194 318.957 481.351 319.521 475.788 319.046L477.926 313.396Z"/>
	<path fill="#5B85B0" transform="matrix(0.619 0 0 0.61962 -0.00390625 0)" d="M540.448 319.278C544.9 329.044 547.139 339.774 549.488 350.197C560.862 400.654 554.473 444.248 536.481 492.309C534.751 496.931 532.991 501.836 529.968 505.793C526.861 505.859 517.405 506.931 515.111 505.321L514.916 505.017C515.479 490.876 514.493 476.56 515.41 462.459C516.877 467.504 515.585 493.466 515.312 500.181C519.089 495.611 522.986 491.072 526.369 486.199C550.835 450.96 553.213 392.509 545.877 351.312C544.802 345.272 543.488 339.073 541.596 333.236C540.204 328.941 538.148 324.795 537.326 320.34C538.012 319.465 539.37 319.496 540.448 319.278Z"/>
	<path fill="#1068A9" transform="matrix(0.619 0 0 0.61962 -0.00390625 0)" d="M543.2 312.263C551.998 318.797 553.603 326.313 558.231 335.535C572.443 361.585 576.459 398.804 574.686 427.961C571.74 436.201 571.51 445.914 569.827 454.526C567.638 465.723 556.307 510.769 547.76 514.624C547.279 514.84 547.009 514.915 546.476 515.099C540.239 514.66 519.517 516.461 515.491 514C513.768 511.202 514.546 508.102 514.916 505.017L515.111 505.321C517.405 506.931 526.861 505.859 529.968 505.793C532.991 501.836 534.751 496.931 536.481 492.309C554.473 444.248 560.862 400.654 549.488 350.197C547.139 339.774 544.9 329.044 540.448 319.278C539.835 317.637 539.253 315.309 537.938 314.126C536.715 313.025 534.977 313.211 533.441 313.208C536.618 312.706 539.973 312.707 543.2 312.263Z"/>
	<path fill="#2DBDF1" transform="matrix(0.619 0 0 0.61962 -0.00390625 0)" d="M546.476 515.099C545.993 513.667 546.342 512.649 546.809 511.264C548.267 506.941 550.662 502.759 552.63 498.643Q557.14 489.37 560.075 479.485C569.837 445.652 575.029 407.176 567.793 372.348C566.257 364.955 563.78 357.89 561.402 350.744C560.324 347.506 556.744 338.507 558.231 335.535C572.443 361.585 576.459 398.804 574.686 427.961C571.74 436.201 571.51 445.914 569.827 454.526C567.638 465.723 556.307 510.769 547.76 514.624C547.279 514.84 547.009 514.915 546.476 515.099Z"/>
	<path fill="#0A1E32" transform="matrix(0.619 0 0 0.61962 -0.00390625 0)" d="M502.125 339.525C511.636 340.035 520.03 342.517 527.597 348.506Q528.404 349.156 529.178 349.845Q529.952 350.534 530.692 351.26Q531.432 351.986 532.135 352.747Q532.839 353.508 533.504 354.302Q534.169 355.096 534.795 355.922Q535.421 356.748 536.006 357.603Q536.591 358.459 537.134 359.342Q537.676 360.225 538.175 361.133Q538.674 362.041 539.128 362.973Q539.582 363.905 539.989 364.857Q540.397 365.81 540.758 366.781Q541.119 367.753 541.432 368.74Q541.746 369.728 542.01 370.73Q542.275 371.732 542.49 372.746Q542.706 373.759 542.872 374.782Q543.037 375.805 543.153 376.835C544.27 387.454 540.465 398.566 533.709 406.738C526.326 415.669 515.889 420.382 504.516 421.45C494.66 421.378 485.972 419.368 477.948 413.368Q477.123 412.741 476.33 412.073Q475.537 411.405 474.778 410.699Q474.019 409.993 473.296 409.251Q472.572 408.508 471.887 407.73Q471.202 406.952 470.556 406.141Q469.91 405.331 469.305 404.489Q468.7 403.647 468.138 402.776Q467.575 401.905 467.057 401.008Q466.538 400.11 466.065 399.188Q465.591 398.266 465.164 397.321Q464.737 396.377 464.357 395.412Q463.977 394.448 463.646 393.466Q463.314 392.483 463.032 391.486Q462.75 390.489 462.517 389.478Q462.285 388.468 462.102 387.448Q461.92 386.427 461.789 385.399C460.345 374.718 463.838 364.039 470.416 355.623C478.764 344.946 489.077 341.203 502.125 339.525Z"/>
	<path fill="#5B85B0" transform="matrix(0.619 0 0 0.61962 -0.00390625 0)" d="M527.658 373.446C529.735 380.562 529.852 387.19 526.193 393.881Q525.862 394.473 525.503 395.048Q525.143 395.623 524.756 396.179Q524.368 396.735 523.953 397.272Q523.539 397.808 523.098 398.323Q522.657 398.838 522.191 399.331Q521.725 399.823 521.235 400.292Q520.745 400.761 520.232 401.205Q519.72 401.649 519.186 402.066Q518.652 402.484 518.098 402.875Q517.543 403.266 516.971 403.628Q516.398 403.991 515.808 404.325Q515.217 404.659 514.611 404.963Q514.005 405.267 513.385 405.541Q512.765 405.814 512.131 406.057Q511.498 406.299 510.854 406.51Q510.209 406.721 509.555 406.899C502.677 408.815 494.979 408.201 488.788 404.513Q488.201 404.157 487.633 403.773Q487.065 403.388 486.517 402.975Q485.969 402.562 485.442 402.123Q484.915 401.683 484.411 401.217Q483.907 400.752 483.428 400.261Q482.948 399.771 482.493 399.257Q482.038 398.743 481.61 398.207Q481.182 397.671 480.781 397.115Q480.38 396.558 480.007 395.982Q479.635 395.405 479.292 394.811Q478.949 394.217 478.636 393.606Q478.323 392.995 478.042 392.37Q477.76 391.744 477.51 391.105Q477.26 390.466 477.043 389.816Q476.825 389.165 476.641 388.504Q476.456 387.843 476.305 387.174C475.456 383.516 475.433 379.973 475.806 376.242Q476.107 377.979 476.584 379.676Q477.061 381.373 477.709 383.012Q478.357 384.651 479.17 386.216Q479.982 387.78 480.951 389.253C484.925 395.403 490.646 400.018 497.977 401.43C504.408 402.669 511.597 401.262 516.947 397.468C525.243 391.584 526.226 382.644 527.658 373.446Z"/>
	<path fill="#2DBDF1" transform="matrix(0.619 0 0 0.61962 -0.00390625 0)" d="M475.806 376.242C476.312 373.935 476.785 371.592 477.671 369.394C480.253 362.988 485.07 357.953 491.501 355.362Q492.137 355.105 492.786 354.88Q493.435 354.656 494.094 354.465Q494.754 354.275 495.422 354.118Q496.09 353.962 496.766 353.84Q497.441 353.718 498.122 353.631Q498.803 353.544 499.488 353.493Q500.172 353.441 500.858 353.424Q501.544 353.408 502.231 353.427Q502.917 353.446 503.601 353.5Q504.285 353.554 504.966 353.643Q505.647 353.732 506.322 353.857Q506.997 353.981 507.665 354.139Q508.332 354.298 508.991 354.491Q509.65 354.684 510.298 354.91Q510.946 355.137 511.581 355.397Q512.217 355.656 512.838 355.948C520.672 359.568 524.743 365.716 527.658 373.446C526.226 382.644 525.243 391.584 516.947 397.468C511.597 401.262 504.408 402.669 497.977 401.43C490.646 400.018 484.925 395.403 480.951 389.253Q479.982 387.78 479.17 386.216Q478.357 384.651 477.709 383.012Q477.061 381.373 476.584 379.676Q476.107 377.979 475.806 376.242Z"/>
	<path fill="#FEFEFE" transform="matrix(0.619 0 0 0.61962 -0.00390625 0)" d="M481.534 372.679C483.147 373.357 485.045 374.044 485.757 375.81C486.578 377.844 485.35 380.184 484.61 382.066C483.746 381.901 482.979 381.702 482.173 381.347C481.235 380.935 480.404 380.161 480.11 379.166C479.412 376.801 480.574 374.785 481.534 372.679Z"/>
	<path fill="#FEFEFE" transform="matrix(0.619 0 0 0.61962 -0.00390625 0)" d="M490.931 358.344C491.897 358.292 492.848 358.242 493.814 358.322C495.805 358.487 498.098 359.088 499.255 360.874C499.991 362.011 500.103 363.392 499.819 364.688C498.873 368.993 495.673 371.257 492.12 373.336C490.526 373.582 488.995 373.804 487.39 373.51C486.013 373.257 484.748 372.587 484.062 371.319C483.283 369.882 483.411 368.124 483.833 366.6C484.973 362.481 487.338 360.385 490.931 358.344Z"/>
	<path fill="#0A1E32" transform="matrix(0.619 0 0 0.61962 -0.00390625 0)" d="M546.476 515.099C547.009 514.915 547.279 514.84 547.76 514.624C556.307 510.769 567.638 465.723 569.827 454.526C571.51 445.914 571.74 436.201 574.686 427.961C575.219 430.166 575.73 432.502 576.77 434.53C578.212 437.343 581.72 441.362 582.322 444.292C582.521 445.264 582.013 446.624 581.744 447.563L581.239 449.818C576.316 473.202 571.625 497.078 559.353 517.991C555.15 518.065 550.442 518.521 547.332 521.702C546.388 522.668 545.914 523.551 545.658 524.886L540.149 524.941Q539.932 531.713 540.032 538.487L545.337 538.576C544.427 542.056 544.18 544.836 544.817 548.386L538.082 548.683C533.865 548.239 529.584 548.541 525.36 548.748C522.602 548.678 519.856 548.612 517.097 548.688C516.789 548.745 516.384 548.801 516.108 548.949C513.667 550.259 512.79 561.399 511.655 564.664C510.467 568.081 508.27 573.305 504.769 574.776C502.996 575.521 501.241 575.123 499.596 574.299C492.251 570.619 492.914 558.359 490.684 551.687C489.986 549.6 489.223 549.021 487.324 548.117L486.494 548.533L479.172 548.491C475.114 548.467 470.955 548.253 466.914 548.615L460.977 548.844C460.463 545.201 460.036 541.85 460.255 538.159C459.715 533.774 459.311 529.27 459.732 524.861C458.954 522.166 457.696 519.636 456.547 517.083C452.645 517.006 448.669 516.852 444.794 517.349C433.697 494.195 428.187 477.665 422.896 452.439L422.303 448.778C422.309 447.838 422.027 446.023 422.655 445.322C423.844 443.995 425.923 443.285 427.549 442.647C429.129 442.027 430.319 441.129 431.637 440.081C433.566 449.12 435.182 458.308 437.554 467.241C441.902 483.618 448.147 499.182 454.951 514.663C457.375 514.633 459.924 514.436 462.331 514.707C467.356 516.013 473.526 514.597 478.728 514.731C482.589 514.904 486.567 514.65 490.438 514.6L490.264 505.222C490.223 493.981 487.623 463.215 492.419 454.7C493.877 452.111 496.079 450.163 499.007 449.467C502.261 448.693 505.923 449.489 508.734 451.246C513.144 454.003 514.263 457.715 515.41 462.459C514.493 476.56 515.479 490.876 514.916 505.017C514.546 508.102 513.768 511.202 515.491 514C519.517 516.461 540.239 514.66 546.476 515.099ZM459.732 524.861C459.311 529.27 459.715 533.774 460.255 538.159C462.325 538.172 464.505 538.045 466.554 538.331C472.548 539.679 483.441 538.23 490.128 538.016L490.19 524.815C482.424 524.738 474.651 524.864 466.884 524.826C464.519 524.716 462.102 524.841 459.732 524.861Z"/>
	<path fill="#D44B14" transform="matrix(0.619 0 0 0.61962 -0.00390625 0)" d="M498.71 505.964C500.271 508.847 498.37 512.742 500.155 516.101C500.053 520.983 501.322 526.544 501.639 531.518C502.206 540.401 500.884 549.999 503.174 558.621C503.318 559.164 503.435 559.719 503.565 560.266L503.099 560.888L502.382 560.618C495.071 546.869 498.727 521.322 498.71 505.964Z"/>
	<path fill="#5B85B0" transform="matrix(0.619 0 0 0.61962 -0.00390625 0)" d="M514.682 525.129C518.775 525.38 522.843 525.375 526.941 525.348C527.127 529.65 527.239 533.893 527.086 538.2L514.754 538.221L514.682 525.129Z"/>
	<path fill="#1068A9" transform="matrix(0.619 0 0 0.61962 -0.00390625 0)" d="M514.682 525.129C523.221 524.73 531.604 524.724 540.149 524.941Q539.932 531.713 540.032 538.487C535.827 537.968 531.331 538.238 527.086 538.2C527.239 533.893 527.127 529.65 526.941 525.348C522.843 525.375 518.775 525.38 514.682 525.129Z"/>
	<path fill="#AD2A0C" transform="matrix(0.619 0 0 0.61962 -0.00390625 0)" d="M506.289 508.714C506.635 526.849 507.538 542.339 503.565 560.266C503.435 559.719 503.318 559.164 503.174 558.621C500.884 549.999 502.206 540.401 501.639 531.518C501.322 526.544 500.053 520.983 500.155 516.101L502.454 515.305C503.437 515.214 504.24 514.993 505.175 514.679C506.289 512.922 506.088 510.785 506.289 508.714Z"/>
	<path fill="#D44B14" transform="matrix(0.619 0 0 0.61962 -0.00390625 0)" d="M502.341 458.882C503.495 459.144 504.375 459.762 504.956 460.815C507.468 465.365 506.516 501.213 506.289 508.714C506.088 510.785 506.289 512.922 505.175 514.679C504.24 514.993 503.437 515.214 502.454 515.305L502.508 475.571C502.529 470.652 503.282 465.28 502.892 460.437C502.845 459.841 502.599 459.404 502.341 458.882Z"/>
	<path fill="#FE7F20" transform="matrix(0.619 0 0 0.61962 -0.00390625 0)" d="M502.341 458.882C502.599 459.404 502.845 459.841 502.892 460.437C503.282 465.28 502.529 470.652 502.508 475.571L502.454 515.305L500.155 516.101C498.37 512.742 500.271 508.847 498.71 505.964C498.371 495.309 497.277 471.733 499.485 462.337C499.959 460.323 500.686 459.905 502.341 458.882Z"/>
	<path fill="#5B85B0" transform="matrix(0.619 0 0 0.61962 -0.00390625 0)" d="M459.732 524.861C462.102 524.841 464.519 524.716 466.884 524.826C474.651 524.864 482.424 524.738 490.19 524.815L490.128 538.016C483.441 538.23 472.548 539.679 466.554 538.331C464.505 538.045 462.325 538.172 460.255 538.159C459.715 533.774 459.311 529.27 459.732 524.861ZM459.732 524.861C459.311 529.27 459.715 533.774 460.255 538.159C462.325 538.172 464.505 538.045 466.554 538.331C466.785 533.84 466.789 529.322 466.884 524.826C464.519 524.716 462.102 524.841 459.732 524.861Z"/>
	<path fill="#2DBDF1" transform="matrix(0.619 0 0 0.61962 -0.00390625 0)" d="M676.213 673.872C684.497 677.618 692.755 683.261 700.628 687.874Q724.893 702.094 748.992 716.593Q674.733 760.358 599.824 802.998C566.534 822.261 533.596 842.837 499.478 860.569C478.373 846.886 456.002 835.124 434.185 822.629L323.128 758.667Q287.097 737.504 250.842 716.726C273.806 701.346 298.561 688.128 322.539 674.379C349.313 687.706 375.001 703.718 400.931 718.631C433.862 737.57 467.348 755.988 499.635 776Q575.961 731.481 652.807 687.863C660.689 683.331 668.342 678.42 676.213 673.872Z"/>
	<path fill="#2DBDF1" transform="matrix(0.619 0 0 0.61962 -0.00390625 0)" d="M498.899 106.403C512.408 112.013 525.174 120.579 537.883 127.818Q577.358 150.151 616.469 173.116L745.296 247.891C769.378 261.779 793.752 275.238 817.589 289.536C788.372 300.028 760.017 313.168 731.013 324.329L585.166 240.117Q542.897 215.999 500.928 191.359C499.199 191.247 497.076 192.604 495.567 193.402C473.686 204.965 452.643 218.12 431.256 230.548L321.067 294.058C303.501 304.115 286.099 314.584 268.319 324.25C261.245 321.841 254.255 318.568 247.325 315.748C225.818 306.997 204.293 297.376 182.389 289.71C196.408 279.817 212.057 271.775 226.981 263.339L289.227 227.694L498.899 106.403Z"/>
	<path fill="#1068A9" transform="matrix(0.619 0 0 0.61962 -0.00390625 0)" d="M173.317 308.521C205.356 319.927 236.711 333.878 268.158 346.847L268.181 488.762C268.214 518.345 268.595 547.891 268.01 577.473C309.026 551.831 351.685 528.859 393.056 503.796C392.527 519.326 392.881 534.871 397.487 549.855C399.371 559.22 400.717 570.386 406.842 578.074L407.167 578.623C409.192 578.406 411.293 559.311 412.755 555.827C417.385 544.79 424.685 532.686 434.191 525.197C437.309 522.74 441.341 520.842 444.114 518.052C444.344 517.821 444.567 517.583 444.794 517.349C448.669 516.852 452.645 517.006 456.547 517.083C457.696 519.636 458.954 522.166 459.732 524.861C459.311 529.27 459.715 533.774 460.255 538.159C460.036 541.85 460.463 545.201 460.977 548.844C461.667 555.128 462.532 561.342 464.093 567.475L463.938 567.871C448.384 576.061 433.31 585.183 418.165 594.102L354.755 631.462Q263.72 684.351 173.272 738.237C173.955 690.822 173.331 643.325 173.324 595.899L173.317 308.521Z"/>
	<path fill="#1068A9" transform="matrix(0.619 0 0 0.61962 -0.00390625 0)" d="M731.489 347.125C762.914 333.314 795.281 321.527 826.877 308.107C827.251 320.116 826.771 332.088 826.727 344.094L826.661 410.373L826.632 625.672L826.623 694.091C826.633 708.772 826.345 723.515 827.173 738.179L637.646 626.986L577.567 591.691C566.204 585.019 554.673 578.62 543.516 571.604C545.083 565.601 547.699 554.883 545.117 548.866C545.042 548.693 544.917 548.546 544.817 548.386C544.18 544.836 544.427 542.056 545.337 538.576L540.032 538.487Q539.932 531.713 540.149 524.941L545.658 524.886C545.914 523.551 546.388 522.668 547.332 521.702C550.442 518.521 555.15 518.065 559.353 517.991C571.625 497.078 576.316 473.202 581.239 449.818L581.744 447.563C599.334 466.032 605.707 493.294 607.284 518.057C607.824 526.536 607.632 535.038 608.057 543.516C612.66 535.433 611.68 516.231 611.367 506.75C621.774 512.415 631.902 518.668 642.12 524.668C671.946 542.183 701.541 560.368 731.744 577.201L731.489 347.125Z"/>
	<path fill="#2DBDF1" transform="matrix(0.619 0 0 0.61962 -0.00390625 0)" d="M545.658 524.886C546.239 528.519 546.743 535.114 545.337 538.576L540.032 538.487Q539.932 531.713 540.149 524.941L545.658 524.886Z"/>
	<path fill="#AD2A0C" transform="matrix(0.619 0 0 0.61962 -0.00390625 0)" d="M581.744 447.563C599.334 466.032 605.707 493.294 607.284 518.057C607.824 526.536 607.632 535.038 608.057 543.516C608.104 555.037 604.416 566.936 599.375 577.157L598.272 578.929L597.339 579.036C594.205 575.278 594.816 563.777 593.054 558.582C587.29 541.587 575.684 525.899 559.353 517.991C571.625 497.078 576.316 473.202 581.239 449.818L581.744 447.563Z"/>
	<path fill="#FE7F20" transform="matrix(0.619 0 0 0.61962 -0.00390625 0)" d="M581.744 447.563C599.334 466.032 605.707 493.294 607.284 518.057C607.824 526.536 607.632 535.038 608.057 543.516C608.104 555.037 604.416 566.936 599.375 577.157C598.401 568.814 600.936 559.759 601.884 551.466C602.845 543.058 602.944 534.342 602.565 525.886C601.693 506.424 597.318 485.388 589.682 467.399C587.454 462.148 582.662 455.764 581.34 450.406C581.292 450.213 581.273 450.014 581.239 449.818L581.744 447.563Z"/>
</svg>
