<?xml version="1.0" encoding="utf-8" ?>
<svg xmlns="http://www.w3.org/2000/svg" xmlns:xlink="http://www.w3.org/1999/xlink" width="619" height="618">
	<path fill="#FEFEFE" transform="scale(0.619133 0.619133)" d="M0 0L999.146 0C1000.86 3.01718 999.998 9.68456 999.998 13.2833L1000 792.622L1000 949.903C1000 956.086 1000.86 994.455 999.696 997.912C999.557 998.327 999.365 998.611 999.146 999L0 999L0 0Z"/>
	<path fill="#FAC54E" transform="scale(0.619133 0.619133)" d="M476.19 303.252C479.263 291.926 487.368 280.097 495.288 271.594C494.397 278.334 484.39 294.229 481.476 303.243L476.19 303.252Z"/>
	<path fill="#AC290C" transform="scale(0.619133 0.619133)" d="M503.963 262.416C510.309 263.407 530.888 287.916 535.395 294.035C537.247 296.549 540.129 300.114 540.24 303.321C532.575 303.607 523.839 304.63 516.25 303.41C517.04 303.304 516.576 303.419 517.588 302.899C516.211 293.175 511.42 282.629 507.83 273.5C506.486 270.084 504.309 266.071 503.963 262.416Z"/>
	<path fill="#FD7E1F" transform="scale(0.619133 0.619133)" d="M503.963 262.416C504.309 266.071 506.486 270.084 507.83 273.5C511.42 282.629 516.211 293.175 517.588 302.899C516.576 303.419 517.04 303.304 516.25 303.41C504.694 302.682 493.047 303.067 481.476 303.243C484.39 294.229 494.397 278.334 495.288 271.594C497.926 268.293 501.294 265.693 503.963 262.416Z"/>
	<path fill="#0A1D31" transform="scale(0.619133 0.619133)" d="M481.476 303.243C493.047 303.067 504.694 302.682 516.25 303.41C523.839 304.63 532.575 303.607 540.24 303.321C540.671 307.178 541.67 309.607 543.817 312.826C540.738 312.974 537.617 313.034 534.552 313.346L534.268 313.468L536.439 319.274C516.314 319.784 496.059 318.254 475.956 319.552C476.612 317.66 477.62 315.802 478.458 313.979C473.841 313.932 469.196 313.995 464.6 313.53L457.259 313.205C459.355 310.041 460.993 306.63 462.693 303.244L476.19 303.252L481.476 303.243Z"/>
	<path fill="#CCE0F5" transform="scale(0.619133 0.619133)" d="M464.6 313.53C487.726 313.091 511.141 313.04 534.268 313.468L536.439 319.274C516.314 319.784 496.059 318.254 475.956 319.552C476.612 317.66 477.62 315.802 478.458 313.979C473.841 313.932 469.196 313.995 464.6 313.53Z"/>
	<path fill="#AC290C" transform="scale(0.619133 0.619133)" d="M398.389 553.819C398.665 544.611 397.344 535.478 397.478 526.274C397.857 500.191 405.429 468.967 422.367 448.552L422.884 451.987C425.756 467.801 430.065 483.873 436.155 498.767C438.79 505.211 442.446 511.288 444.819 517.819C444.707 517.92 444.596 518.022 444.483 518.121C441.254 520.941 437.308 522.784 434.043 525.567C423.805 534.292 414.149 549.243 411.185 562.328C410.192 566.714 409.694 575.722 407.819 579.155L407.176 579.088L406.726 578.19C401.766 571.5 399.624 561.905 398.389 553.819Z"/>
	<path fill="#FD7E1F" transform="scale(0.619133 0.619133)" d="M398.389 553.819C398.665 544.611 397.344 535.478 397.478 526.274C397.857 500.191 405.429 468.967 422.367 448.552L422.884 451.987C420.594 457.636 417.458 462.866 415.21 468.504C404.941 494.262 401.393 521.049 403.189 548.588Q403.842 558.153 405.223 567.64C405.72 571.067 406.682 574.756 406.726 578.19C401.766 571.5 399.624 561.905 398.389 553.819Z"/>
	<path fill="#FD7E1F" transform="scale(0.619133 0.619133)" d="M479.271 548.566L481.114 548.59C483.103 548.584 485.283 548.758 487.232 548.365C487.907 548.519 489.346 548.611 489.713 549.195C492.518 553.647 492.228 572.511 500.861 574.751Q501.154 574.828 501.453 574.876Q501.753 574.923 502.055 574.939Q502.358 574.955 502.661 574.941Q502.964 574.926 503.263 574.88Q503.563 574.835 503.856 574.759Q504.15 574.683 504.434 574.577Q504.718 574.471 504.99 574.337Q505.261 574.203 505.518 574.042C509.603 571.495 512.296 563.968 513.224 559.419C513.899 556.112 513.329 551.373 515.883 548.87C516.775 548.727 517.593 548.614 518.498 548.576L525.159 548.718L525.512 548.688C529.719 548.661 533.972 548.5 538.174 548.669C540.056 561.344 542.362 574.368 542.459 587.192C542.672 615.04 531.236 644.69 514.761 667.056C511.152 671.955 507.273 675.864 502.471 679.582C481.078 661.887 466.367 625.361 463.897 598.311C462.989 588.37 463.038 577.632 464.004 567.696C462.197 561.808 462.326 554.99 460.959 548.892L467.015 548.604L479.271 548.566Z"/>
	<path fill="#FEFEFE" transform="scale(0.619133 0.619133)" d="M460.959 548.892L467.015 548.604C466.148 554.55 465.912 562.086 464.004 567.696C462.197 561.808 462.326 554.99 460.959 548.892Z"/>
	<path fill="#FAC54E" transform="scale(0.619133 0.619133)" d="M479.271 548.566L481.114 548.59C479.994 572.7 479.472 593.209 496.746 612.265C498.521 614.222 500.277 616.443 502.956 617.068C506.759 616.324 509.194 612.473 511.216 609.439C524.621 589.326 525.734 571.966 525.159 548.718L525.512 548.688C526.053 550.171 526.54 551.665 526.882 553.208C533.366 582.492 518.635 609.654 503.116 633.237Q498.895 628.184 495.163 622.76C479.453 599.532 473.849 576.091 479.271 548.566Z"/>
	<path fill="#FEED83" transform="scale(0.619133 0.619133)" d="M481.114 548.59C483.103 548.584 485.283 548.758 487.232 548.365C483.093 561.605 486.681 583.348 493.111 595.589C494.906 599.006 497.566 603.439 501.521 604.538C503.285 605.028 505.03 604.659 506.547 603.684C512.729 599.708 515.795 586.449 517.01 579.701C518.837 569.553 518.451 558.869 518.498 548.576L525.159 548.718C525.734 571.966 524.621 589.326 511.216 609.439C509.194 612.473 506.759 616.324 502.956 617.068C500.277 616.443 498.521 614.222 496.746 612.265C479.472 593.209 479.994 572.7 481.114 548.59Z"/>
	<path fill="#FEFEFE" transform="scale(0.619133 0.619133)" d="M487.232 548.365C487.907 548.519 489.346 548.611 489.713 549.195C492.518 553.647 492.228 572.511 500.861 574.751Q501.154 574.828 501.453 574.876Q501.753 574.923 502.055 574.939Q502.358 574.955 502.661 574.941Q502.964 574.926 503.263 574.88Q503.563 574.835 503.856 574.759Q504.15 574.683 504.434 574.577Q504.718 574.471 504.99 574.337Q505.261 574.203 505.518 574.042C509.603 571.495 512.296 563.968 513.224 559.419C513.899 556.112 513.329 551.373 515.883 548.87C516.775 548.727 517.593 548.614 518.498 548.576C518.451 558.869 518.837 569.553 517.01 579.701C515.795 586.449 512.729 599.708 506.547 603.684C505.03 604.659 503.285 605.028 501.521 604.538C497.566 603.439 494.906 599.006 493.111 595.589C486.681 583.348 483.093 561.605 487.232 548.365Z"/>
	<path fill="#9DBCD5" transform="scale(0.619133 0.619133)" d="M543.817 312.826C551.196 316.635 554.708 327.064 557.373 334.386C560.172 338.954 562.118 344.325 563.936 349.363C572.863 374.108 576.047 400.962 574.689 427.165C575.908 433.752 578.098 438.272 582.528 443.257C582.351 444.608 582.2 445.97 581.985 447.315L581.182 450.568C576.532 475.192 571.798 495.694 559.582 517.976C555.098 518.146 550.08 518.867 546.944 522.444C546.261 523.223 545.884 523.874 545.723 524.895L540.23 524.905L539.976 538.227C541.707 538.35 543.403 538.438 545.139 538.413C544.813 541.799 544.567 544.937 544.975 548.326L538.174 548.669C533.972 548.5 529.719 548.661 525.512 548.688L525.159 548.718L518.498 548.576C517.593 548.614 516.775 548.727 515.883 548.87C513.329 551.373 513.899 556.112 513.224 559.419C512.296 563.968 509.603 571.495 505.518 574.042Q505.261 574.203 504.99 574.337Q504.718 574.471 504.434 574.577Q504.15 574.683 503.856 574.759Q503.563 574.835 503.263 574.88Q502.964 574.926 502.661 574.941Q502.358 574.955 502.055 574.939Q501.753 574.923 501.453 574.876Q501.154 574.828 500.861 574.751C492.228 572.511 492.518 553.647 489.713 549.195C489.346 548.611 487.907 548.519 487.232 548.365C485.283 548.758 483.103 548.584 481.114 548.59L479.271 548.566L467.015 548.604L460.959 548.892C459.94 545.932 459.419 540.951 460.418 537.977C459.447 534.182 459.843 529.219 459.737 525.289C458.705 522.456 457.51 519.811 456.151 517.12C452.504 516.971 448.272 516.471 444.819 517.819C442.446 511.288 438.79 505.211 436.155 498.767C430.065 483.873 425.756 467.801 422.884 451.987L422.367 448.552C422.11 447.251 421.556 445.759 422.192 444.523C425.433 443.576 429.573 443.07 431.387 439.932C432.55 441.525 436.359 462.788 437.585 467.315C440.2 476.974 443.224 486.393 446.939 495.689C449.449 501.969 452.486 508.172 454.671 514.559C457.224 514.156 459.981 514.308 462.569 514.259C461.019 511.676 459.77 508.971 458.492 506.247C463.407 506.19 468.335 505.772 473.256 505.639C468.117 492.465 462.915 479.681 458.865 466.091C456.709 458.856 454.632 451.475 453.39 444.021C448.532 414.86 450.881 378.117 461.018 350.38C464.987 339.521 470.47 329.677 475.956 319.552C496.059 318.254 516.314 319.784 536.439 319.274L534.268 313.468L534.552 313.346C537.617 313.034 540.738 312.974 543.817 312.826Z"/>
	<path fill="#5B84AF" transform="scale(0.619133 0.619133)" d="M490.231 505.332C490.281 508.424 490.388 511.531 490.34 514.623C486.452 514.694 482.461 514.963 478.584 514.721C477.086 511.994 475.892 509.157 474.672 506.299C479.859 506.356 485.187 506.731 490.231 505.332Z"/>
	<path fill="#5B84AF" transform="scale(0.619133 0.619133)" d="M540.403 319.361C544.656 329.421 546.969 339.584 549.319 350.185C551.329 359.252 553.257 368.236 554.216 377.488C558.269 416.577 550.287 457.8 535.631 493.972C534.279 497.308 532.216 503.422 529.546 505.839Q522.281 505.968 515.015 505.867C515.587 491.416 514.925 476.872 515.34 462.4C516.778 467.382 515.51 492.609 515.439 500.027C519.215 495.649 522.939 491.253 526.302 486.542C551.058 451.864 552.909 390.529 545.711 350.014Q543.94 340.266 540.813 330.865C539.616 327.233 537.74 323.359 537.126 319.605C538.1 319.667 538.89 319.749 539.851 319.524C540.038 319.48 540.219 319.416 540.403 319.361Z"/>
	<path fill="#1168A9" transform="scale(0.619133 0.619133)" d="M543.817 312.826C551.196 316.635 554.708 327.064 557.373 334.386C560.172 338.954 562.118 344.325 563.936 349.363C572.863 374.108 576.047 400.962 574.689 427.165C574.641 427.324 574.591 427.483 574.545 427.643C572.386 435.2 571.972 443.83 570.517 451.614Q568.312 463.783 564.894 475.669Q561.475 487.555 556.879 499.037C554.897 504.114 552.937 510.917 548.522 514.394C547.635 514.606 546.807 514.787 545.9 514.903C536.788 514.393 527.645 515.55 518.528 514.7C518.3 514.707 518.072 514.724 517.844 514.722C516.529 514.71 515.984 514.694 515.036 513.769C514.162 511.303 514.774 508.431 515.015 505.867Q522.281 505.968 529.546 505.839C532.216 503.422 534.279 497.308 535.631 493.972C550.287 457.8 558.269 416.577 554.216 377.488C553.257 368.236 551.329 359.252 549.319 350.185C546.969 339.584 544.656 329.421 540.403 319.361C539.847 317.685 539.317 316.05 538.532 314.465C537.104 313.401 536.297 313.515 534.552 313.346C537.617 313.034 540.738 312.974 543.817 312.826Z"/>
	<path fill="#2EBDF2" transform="scale(0.619133 0.619133)" d="M557.373 334.386C560.172 338.954 562.118 344.325 563.936 349.363C572.863 374.108 576.047 400.962 574.689 427.165C574.641 427.324 574.591 427.483 574.545 427.643C572.386 435.2 571.972 443.83 570.517 451.614Q568.312 463.783 564.894 475.669Q561.475 487.555 556.879 499.037C554.897 504.114 552.937 510.917 548.522 514.394C547.635 514.606 546.807 514.787 545.9 514.903C546.806 509.017 552.164 500.567 554.608 494.803C558.119 486.521 560.851 477.653 562.903 468.906C570.966 434.543 574.82 402.751 566.794 367.863C564.374 357.34 558.631 345.224 557.422 334.885C557.403 334.719 557.389 334.553 557.373 334.386Z"/>
	<path fill="#0A1D31" transform="scale(0.619133 0.619133)" d="M501.767 339.553C511.553 338.827 521.645 343.362 528.94 349.624C537.289 356.791 542.767 367.251 543.449 378.268Q543.501 379.258 543.505 380.25Q543.509 381.242 543.464 382.232Q543.419 383.223 543.325 384.21Q543.232 385.197 543.09 386.179Q542.949 387.16 542.759 388.134Q542.569 389.107 542.332 390.07Q542.095 391.033 541.811 391.983Q541.527 392.933 541.197 393.868Q540.867 394.803 540.491 395.721Q540.115 396.638 539.695 397.537Q539.275 398.435 538.811 399.311Q538.347 400.188 537.841 401.041Q537.335 401.893 536.788 402.72Q536.24 403.547 535.653 404.346Q535.066 405.146 534.44 405.915Q533.815 406.684 533.152 407.422C525.887 415.652 516.023 420.807 505.005 421.481C494.405 421.602 485.35 419.735 476.987 412.839C468.394 405.753 462.553 395.623 461.551 384.466Q461.459 383.467 461.418 382.466Q461.376 381.464 461.384 380.461Q461.392 379.458 461.451 378.457Q461.509 377.456 461.617 376.459Q461.725 375.463 461.882 374.472Q462.039 373.482 462.246 372.501Q462.453 371.52 462.708 370.55Q462.963 369.58 463.266 368.624Q463.569 367.669 463.92 366.729Q464.27 365.79 464.667 364.869Q465.063 363.948 465.506 363.048Q465.948 362.148 466.434 361.271Q466.92 360.394 467.45 359.542Q467.979 358.691 468.55 357.867Q469.122 357.043 469.733 356.248Q470.345 355.453 470.995 354.69C479.178 344.902 489.261 340.631 501.767 339.553Z"/>
	<path fill="#5B84AF" transform="scale(0.619133 0.619133)" d="M527.402 372.388C529.852 378.687 530.07 385.221 527.338 391.501C524.456 398.125 518.647 403.729 511.905 406.292C505.196 408.842 497.426 408.769 490.88 405.742C484.441 402.764 479.314 396.466 477.032 389.815C475.542 385.475 474.88 379.949 475.981 375.439C475.938 381.188 479.585 387.859 483.064 392.39C486.996 397.513 492.802 401.069 499.255 401.836C506.087 402.647 513.655 400.679 518.935 396.195C526.376 389.875 526.834 381.347 527.402 372.388Z"/>
	<path fill="#2EBDF2" transform="scale(0.619133 0.619133)" d="M475.981 375.439C476.424 372.932 477.152 370.405 478.229 368.097Q478.494 367.519 478.788 366.956Q479.082 366.392 479.404 365.844Q479.726 365.296 480.075 364.765Q480.424 364.233 480.8 363.721Q481.176 363.208 481.577 362.715Q481.978 362.221 482.403 361.749Q482.829 361.277 483.277 360.826Q483.726 360.376 484.197 359.949Q484.668 359.522 485.16 359.119Q485.652 358.717 486.163 358.339Q486.675 357.962 487.205 357.611Q487.735 357.26 488.282 356.936Q488.829 356.612 489.391 356.316Q489.954 356.021 490.531 355.754Q491.108 355.487 491.697 355.249Q492.287 355.011 492.888 354.804Q493.502 354.586 494.126 354.399Q494.75 354.212 495.383 354.056Q496.015 353.9 496.655 353.776Q497.294 353.651 497.939 353.558Q498.584 353.466 499.232 353.405Q499.881 353.344 500.532 353.315Q501.183 353.286 501.834 353.289Q502.486 353.293 503.136 353.328Q503.787 353.364 504.435 353.431Q505.083 353.499 505.727 353.598Q506.37 353.698 507.008 353.829Q507.647 353.96 508.278 354.122Q508.908 354.285 509.531 354.478Q510.153 354.672 510.764 354.896Q511.376 355.119 511.976 355.373Q512.576 355.627 513.163 355.91C520.316 359.328 524.741 365.022 527.402 372.388C526.834 381.347 526.376 389.875 518.935 396.195C513.655 400.679 506.087 402.647 499.255 401.836C492.802 401.069 486.996 397.513 483.064 392.39C479.585 387.859 475.938 381.188 475.981 375.439Z"/>
	<path fill="#FEFEFE" transform="scale(0.619133 0.619133)" d="M481.679 372.804C481.847 372.859 482.016 372.909 482.181 372.97C483.747 373.544 485.474 374.323 485.998 376.057C486.652 378.219 485.285 380.273 484.329 382.114C483.506 381.859 482.692 381.589 481.914 381.212C480.971 380.754 480.174 379.967 479.906 378.935C479.309 376.631 480.631 374.763 481.679 372.804Z"/>
	<path fill="#FEFEFE" transform="scale(0.619133 0.619133)" d="M491.401 358.373C492.72 358.278 493.956 358.25 495.26 358.525C496.934 358.878 498.762 359.617 499.569 361.25C500.297 362.723 500.175 364.335 499.652 365.845C498.215 370.001 495.523 371.681 491.784 373.47C490.351 373.63 488.931 373.771 487.506 373.462C486.031 373.143 484.68 372.273 484.015 370.877C483.189 369.148 483.477 367.142 484.117 365.408C485.533 361.566 487.839 360.034 491.401 358.373Z"/>
	<path fill="#0A1D31" transform="scale(0.619133 0.619133)" d="M545.9 514.903C546.807 514.787 547.635 514.606 548.522 514.394C552.937 510.917 554.897 504.114 556.879 499.037Q561.475 487.555 564.894 475.669Q568.312 463.783 570.517 451.614C571.972 443.83 572.386 435.2 574.545 427.643C574.591 427.483 574.641 427.324 574.689 427.165C575.908 433.752 578.098 438.272 582.528 443.257C582.351 444.608 582.2 445.97 581.985 447.315L581.182 450.568C576.532 475.192 571.798 495.694 559.582 517.976C555.098 518.146 550.08 518.867 546.944 522.444C546.261 523.223 545.884 523.874 545.723 524.895L540.23 524.905L539.976 538.227C541.707 538.35 543.403 538.438 545.139 538.413C544.813 541.799 544.567 544.937 544.975 548.326L538.174 548.669C533.972 548.5 529.719 548.661 525.512 548.688L525.159 548.718L518.498 548.576C517.593 548.614 516.775 548.727 515.883 548.87C513.329 551.373 513.899 556.112 513.224 559.419C512.296 563.968 509.603 571.495 505.518 574.042Q505.261 574.203 504.99 574.337Q504.718 574.471 504.434 574.577Q504.15 574.683 503.856 574.759Q503.563 574.835 503.263 574.88Q502.964 574.926 502.661 574.941Q502.358 574.955 502.055 574.939Q501.753 574.923 501.453 574.876Q501.154 574.828 500.861 574.751C492.228 572.511 492.518 553.647 489.713 549.195C489.346 548.611 487.907 548.519 487.232 548.365C485.283 548.758 483.103 548.584 481.114 548.59L479.271 548.566L467.015 548.604L460.959 548.892C459.94 545.932 459.419 540.951 460.418 537.977C459.447 534.182 459.843 529.219 459.737 525.289C458.705 522.456 457.51 519.811 456.151 517.12C452.504 516.971 448.272 516.471 444.819 517.819C442.446 511.288 438.79 505.211 436.155 498.767C430.065 483.873 425.756 467.801 422.884 451.987L422.367 448.552C422.11 447.251 421.556 445.759 422.192 444.523C425.433 443.576 429.573 443.07 431.387 439.932C432.55 441.525 436.359 462.788 437.585 467.315C440.2 476.974 443.224 486.393 446.939 495.689C449.449 501.969 452.486 508.172 454.671 514.559C462.469 515.431 470.718 514.563 478.584 514.721C482.461 514.963 486.452 514.694 490.34 514.623C490.388 511.531 490.281 508.424 490.231 505.332L489.889 478.51C489.828 473.011 489.415 467.296 490.097 461.835C490.406 459.355 491.004 456.938 492.295 454.774C493.806 452.243 496.132 450.224 499.038 449.524C502.525 448.684 507.088 449.765 510.004 451.791C513.683 454.347 514.496 458.306 515.34 462.4C514.925 476.872 515.587 491.416 515.015 505.867C514.774 508.431 514.162 511.303 515.036 513.769C515.984 514.694 516.529 514.71 517.844 514.722C518.072 514.724 518.3 514.707 518.528 514.7C527.645 515.55 536.788 514.393 545.9 514.903Z"/>
	<path fill="#D24813" transform="scale(0.619133 0.619133)" d="M498.931 507.197C499.072 509.748 498.635 513.517 499.478 515.826L500.536 516.149C501.709 523.372 502.189 530.852 502.31 538.17C502.418 544.762 501.593 551.772 503.263 558.198L503.782 560.231L502.928 561.299L502.377 561.122C495.991 546.691 498.115 523.069 498.931 507.197Z"/>
	<path fill="#5B84AF" transform="scale(0.619133 0.619133)" d="M514.745 525.092C518.965 525.375 523.189 525.282 527.416 525.239L527.486 538.194L514.819 538.224L514.745 525.092Z"/>
	<path fill="#1168A9" transform="scale(0.619133 0.619133)" d="M514.745 525.092C522.776 523.934 532.065 524.71 540.23 524.905L539.976 538.227L527.486 538.194L527.416 525.239C523.189 525.282 518.965 525.375 514.745 525.092Z"/>
	<path fill="#AC290C" transform="scale(0.619133 0.619133)" d="M505.942 469.571C507.105 483.672 506.369 498.287 506.381 512.459C506.391 523.55 507.16 535.131 506.248 546.162C505.844 551.041 504.731 555.47 503.782 560.231L503.263 558.198C501.593 551.772 502.418 544.762 502.31 538.17C502.189 530.852 501.709 523.372 500.536 516.149L502.524 515.167C503.663 515.095 504.493 514.943 505.559 514.533C507.149 509.103 505.377 478.405 505.902 470.134L505.942 469.571Z"/>
	<path fill="#FD7E1F" transform="scale(0.619133 0.619133)" d="M498.931 507.197C498.548 499.27 498.061 466.486 499.703 460.724C500.625 459.569 501.644 459.445 503.005 459.117C504.68 460.455 505.675 461.418 505.971 463.658C506.223 465.566 506.019 467.65 505.942 469.571L505.902 470.134C505.377 478.405 507.149 509.103 505.559 514.533C504.493 514.943 503.663 515.095 502.524 515.167L500.536 516.149L499.478 515.826C498.635 513.517 499.072 509.748 498.931 507.197Z"/>
	<path fill="#D24813" transform="scale(0.619133 0.619133)" d="M503.005 459.117C504.68 460.455 505.675 461.418 505.971 463.658C506.223 465.566 506.019 467.65 505.942 469.571L505.902 470.134C505.377 478.405 507.149 509.103 505.559 514.533C504.493 514.943 503.663 515.095 502.524 515.167C502.416 504.843 502.568 494.507 502.577 484.182C502.584 475.846 502.345 467.431 503.005 459.117Z"/>
	<path fill="#5B84AF" transform="scale(0.619133 0.619133)" d="M466.734 524.924C474.539 524.879 482.368 524.697 490.171 524.813L490.068 538.043C483.951 538.097 465.478 539.33 460.814 538.115L460.418 537.977C459.447 534.182 459.843 529.219 459.737 525.289C462.037 524.922 464.409 524.977 466.734 524.924Z"/>
	<path fill="#FEFEFE" transform="scale(0.619133 0.619133)" d="M459.737 525.289C462.037 524.922 464.409 524.977 466.734 524.924Q466.716 531.469 466.565 538.012L460.814 538.115L460.418 537.977C459.447 534.182 459.843 529.219 459.737 525.289Z"/>
	<path fill="#2EBDF2" transform="scale(0.619133 0.619133)" d="M676.185 673.723C677.582 673.975 742.413 712.333 749.613 716.548Q683.226 755.744 616.153 793.754L550.583 831.679C533.623 841.535 516.87 851.525 499.58 860.814C480.16 848.094 458.673 836.888 438.498 825.269L323.98 759.173Q287.427 737.555 250.422 716.719C273.88 701.726 298.619 688.242 322.654 674.167C341.846 683.691 360.4 695.32 379.012 705.935Q439.571 740.383 499.6 775.746C507.601 772.154 515.317 767.019 522.91 762.607L564.938 738.223L634.722 698.108C648.599 690.104 662.637 682.276 676.185 673.723Z"/>
	<path fill="#2EBDF2" transform="scale(0.619133 0.619133)" d="M499.103 106.374C507.664 109.803 515.996 115.517 524.087 119.986Q558.885 139.399 593.254 159.563Q705.211 225.142 817.838 289.569C788.645 300.625 760.359 313.792 731.038 324.512C721.152 318.332 710.895 312.726 700.791 306.911L648.779 276.925L500.692 191.38C498.936 191.621 497.211 192.66 495.674 193.486C470.569 206.975 445.499 222.468 420.714 236.771L268.46 324.533C255.142 318.647 241.404 313.473 227.905 307.983C212.713 301.804 197.582 295.281 182.155 289.713C195.273 281.065 209.196 273.589 222.842 265.814L286.572 229.363L499.103 106.374Z"/>
	<path fill="#1168A9" transform="scale(0.619133 0.619133)" d="M173.18 308.301C205.115 320.523 236.534 333.967 268.26 346.709L268.273 496.799C268.279 523.635 269.127 550.698 268.04 577.498C309.198 551.991 351.566 528.476 393.139 503.649C392.193 520.905 393.131 537.21 398.389 553.819C399.624 561.905 401.766 571.5 406.726 578.19L407.176 579.088L407.819 579.155C409.694 575.722 410.192 566.714 411.185 562.328C414.149 549.243 423.805 534.292 434.043 525.567C437.308 522.784 441.254 520.941 444.483 518.121C444.596 518.022 444.707 517.92 444.819 517.819C448.272 516.471 452.504 516.971 456.151 517.12C457.51 519.811 458.705 522.456 459.737 525.289C459.843 529.219 459.447 534.182 460.418 537.977C459.419 540.951 459.94 545.932 460.959 548.892C462.326 554.99 462.197 561.808 464.004 567.696C448.818 575.954 434.015 585.09 419.105 593.839L338.89 640.95Q255.638 689.193 172.985 738.465C173.928 721.329 173.286 703.862 173.285 686.693L173.272 594.251L173.18 308.301Z"/>
	<path fill="#1168A9" transform="scale(0.619133 0.619133)" d="M731.395 347.056L826.902 308.085C827.614 319.983 826.97 331.8 826.869 343.701L826.813 395.464L826.813 622.397L826.779 694.234C826.762 708.863 826.269 723.618 827.218 738.217Q745.326 691.15 664.23 642.722L584.209 595.732C570.637 587.756 556.837 580.021 543.457 571.732C545.25 564.229 547.143 555.981 544.975 548.326C544.567 544.937 544.813 541.799 545.139 538.413C543.403 538.438 541.707 538.35 539.976 538.227L540.23 524.905L545.723 524.895C545.884 523.874 546.261 523.223 546.944 522.444C550.08 518.867 555.098 518.146 559.582 517.976C571.798 495.694 576.532 475.192 581.182 450.568L581.985 447.315C584.827 451.633 588.371 455.395 591.007 459.848C602.041 478.493 606.821 501.501 607.364 522.949C607.569 531.089 606.981 539.388 607.586 547.493C611.812 534.099 612.07 520.325 611.255 506.43L691.107 553.312C704.544 561.201 717.888 569.384 731.481 576.991L731.395 347.056Z"/>
	<path fill="#2EBDF2" transform="scale(0.619133 0.619133)" d="M545.723 524.895C546.449 529.197 546.066 533.696 545.739 538.022C543.829 538.063 541.873 538.012 539.976 538.227L540.23 524.905L545.723 524.895Z"/>
	<path fill="#AC290C" transform="scale(0.619133 0.619133)" d="M581.985 447.315C584.827 451.633 588.371 455.395 591.007 459.848C602.041 478.493 606.821 501.501 607.364 522.949C607.569 531.089 606.981 539.388 607.586 547.493C606.803 557.351 604.361 568.573 599.285 577.175C598.854 578.181 598.605 578.804 597.729 579.485L596.913 579.137C594.454 573.187 595.462 565.208 593.112 558.712C587.046 541.944 576.171 525.576 559.582 517.976C571.798 495.694 576.532 475.192 581.182 450.568L581.985 447.315Z"/>
	<path fill="#FD7E1F" transform="scale(0.619133 0.619133)" d="M581.985 447.315C584.827 451.633 588.371 455.395 591.007 459.848C602.041 478.493 606.821 501.501 607.364 522.949C607.569 531.089 606.981 539.388 607.586 547.493C606.803 557.351 604.361 568.573 599.285 577.175C598.375 571.191 601.725 556.087 602.276 548.721C604.354 520.974 600.108 492.14 589.169 466.5C586.842 461.046 583.946 455.81 581.182 450.568L581.985 447.315Z"/>
</svg>
