<?xml version="1.0" encoding="utf-8" ?>
<svg xmlns="http://www.w3.org/2000/svg" xmlns:xlink="http://www.w3.org/1999/xlink" width="636" height="635">
	<path d="M244.624 263.698C246.356 268.12 246.606 273.321 247.763 277.939Q250.114 287.691 253.413 297.165Q256.712 306.639 260.927 315.742C262.004 318.052 263.035 320.698 264.458 322.803C264.249 323.902 264.152 324.05 263.253 324.689C260.536 326.619 257.767 328.268 255.231 330.47C244.905 339.433 237.272 352.73 234.597 366.104C233.786 370.158 233.592 374.32 232.753 378.353C227.398 370.98 225.152 362.304 224.431 353.315C224.216 344.625 223.306 336.014 223.589 327.307C224.263 306.575 231.455 280.044 244.624 263.698Z"/>
	<path d="M278.989 350.602C280.127 350.545 283.231 350.082 284.116 350.563C288.064 351.654 296.906 351.059 301.211 350.914C301.97 350.796 302.928 350.532 303.679 350.719C304.604 350.949 305.722 362.608 308.915 368.349C310.081 370.447 312.083 372.979 314.562 373.529C315.767 373.796 317.002 373.505 318.022 372.832C323.84 368.992 325.046 356.851 326.151 350.593C327.121 350.512 328.422 350.247 329.332 350.579C332.636 351.183 343.547 351.522 346.602 350.586C347.396 361.581 349.844 372.371 349.974 383.46C350.206 403.13 344.054 421.926 334.979 439.142C331.564 445.619 327.721 452.083 322.917 457.627Q321.228 459.61 319.308 461.369Q317.387 463.129 315.265 464.639C300.312 454.597 286.349 421.942 282.91 404.333C280.691 392.968 281.112 381.686 281.366 370.191C281.377 369.325 281.472 368.562 281.626 367.709C280.258 362.2 280.862 355.949 278.989 350.602ZM326.151 350.593C325.046 356.851 323.84 368.992 318.022 372.832C317.002 373.505 315.767 373.796 314.562 373.529C312.083 372.979 310.081 370.447 308.915 368.349C305.722 362.608 304.604 350.949 303.679 350.719C302.928 350.532 301.97 350.796 301.211 350.914C300.629 354.069 300.612 357.306 300.568 360.505C300.431 370.517 301.388 380.043 305.739 389.215C308.019 394.019 310.703 398.348 315.924 400.189C317.174 399.567 318.275 398.912 319.293 397.945C329.904 387.858 329.178 364.192 329.332 350.579C328.422 350.247 327.121 350.512 326.151 350.593ZM278.989 350.602C280.862 355.949 280.258 362.2 281.626 367.709C282.994 363.208 283.42 355.493 284.116 350.563C283.231 350.082 280.127 350.545 278.989 350.602Z"/>
	<path fill="#2DBDF2" d="M430.298 429.722C435.144 431.964 440.216 435.385 444.896 438.094C455.532 444.251 466.215 450.46 476.618 457.006C473.243 459.333 469.545 461.334 466.015 463.421Q453.838 470.598 441.463 477.426L394.343 504.476L348.911 530.783C338.7 536.794 328.449 543.638 317.631 548.461C306.237 542.152 295.103 535.264 283.805 528.77L206.015 483.92C201.308 481.421 196.717 478.539 192.089 475.884L159.458 457.026C165.376 452.644 172.276 449.077 178.637 445.366C187.438 440.232 196.198 434.882 205.217 430.15C209.924 431.973 214.421 434.909 218.827 437.382Q231.327 444.316 243.651 451.556Q280.863 472.82 317.793 494.571C344.316 479.671 370.539 464.179 396.897 448.985L417.438 437.098C421.668 434.615 425.879 431.85 430.298 429.722Z"/>
	<path fill="#2DBDF2" d="M317.42 69.2442C327.454 73.5738 337.197 79.7262 346.629 85.2374L377.094 102.776L480.969 163.094Q492.563 169.624 504.03 176.376C509.357 179.505 514.769 183.119 520.447 185.568C501.654 192.214 483.753 200.96 464.952 207.66Q421.644 182.268 377.965 157.519C371.757 154.028 365.646 150.342 359.497 146.746C356.221 144.831 352.85 142.599 349.348 141.136C348.26 140.096 348.213 137.254 348.164 135.852C342.01 136.216 335.75 135.922 329.582 135.974C317.191 136.076 304.748 136.244 292.363 135.805L292.233 136.159C288.445 136.595 284.334 136.29 280.516 136.238C279.013 139.124 277.569 142.577 275.407 145.018L274.684 145.306Q273.205 147.522 271.61 149.657C246.846 163.513 222.406 178.044 197.8 192.184C188.811 197.349 179.905 202.743 170.775 207.652C159.009 203.226 147.424 198.197 135.777 193.462C129.23 190.8 122.358 188.528 115.936 185.621C126.603 179.015 137.568 172.898 148.444 166.644L202.125 135.745L275.269 93.4616C289.287 85.365 303.231 77.0321 317.42 69.2442Z"/>
	<path fill="#FAFBFB" d="M280.54 136.048C283.316 131.55 286.456 127.221 289.672 123.028C293.189 118.443 309.464 99.1337 314.906 99.197C315.826 99.2077 316.031 99.765 316.535 100.419L316.348 100.643C314.302 103.049 311.906 105.165 309.79 107.519C303.224 114.824 294.669 126.197 292.363 135.805L292.233 136.159L280.54 136.048Z"/>
	<path d="M316.535 100.419C320.843 100.821 336.033 118.346 339.385 122.391C341.683 125.164 348.125 132.572 348.164 135.852C342.01 136.216 335.75 135.922 329.582 135.974C317.191 136.076 304.748 136.244 292.363 135.805C294.669 126.197 303.224 114.824 309.79 107.519C311.906 105.165 314.302 103.049 316.348 100.643L316.535 100.419Z"/>
	<path fill="#0E68AA" d="M109.959 197.51C130.397 204.924 150.223 213.992 170.558 221.671C170.793 224.91 170.583 228.266 170.56 231.521L170.517 247.721L170.497 304.159L170.575 346.35C170.591 353.602 171.228 361.422 170.258 368.584C180.215 361.955 190.634 356.048 201 350.091C207.531 346.338 214.023 342.336 220.724 338.901C221.136 343.3 222.07 349.601 224.431 353.315C225.152 362.304 227.398 370.98 232.753 378.353C233.592 374.32 233.786 370.158 234.597 366.104C237.272 352.73 244.905 339.433 255.231 330.47C257.767 328.268 260.536 326.619 263.253 324.689C264.152 324.05 264.249 323.902 264.458 322.803C264.575 322.826 264.694 322.844 264.81 322.872C264.984 322.915 265.15 322.999 265.328 323.016C265.434 323.026 266.117 322.872 266.174 322.861C268.904 322.347 271.893 322.654 274.632 322.98C275.944 325.211 277.034 327.418 277.701 329.932C278.083 333.662 278.314 337.494 278.273 341.245C277.731 344.148 278.078 347.8 278.989 350.602C280.862 355.949 280.258 362.2 281.626 367.709C281.472 368.562 281.377 369.325 281.366 370.191C274.908 373.696 268.624 377.644 262.277 381.354L219.498 406.519L110.01 470.772C110.636 458.007 110.24 445.056 110.242 432.272L110.06 357.33L110.195 256.694Q110.356 227.101 109.959 197.51Z"/>
	<path fill="#0E68AA" d="M465.18 221.888C478.762 216.829 492.193 211.204 505.596 205.684C512.293 202.925 519.052 199.694 525.957 197.512C526.371 205.665 525.913 213.743 525.87 221.894L525.862 264.529L525.865 397.731C525.861 422.029 525.265 446.475 526.041 470.753C494.783 452.918 464.014 434.286 432.927 416.165L378.53 384.316C369.585 379.042 360.481 373.949 351.698 368.415C352.696 362.53 353.855 356.264 352.306 350.348C351.72 347.603 351.998 344.007 352.533 341.271C353.947 338.831 353.535 332.381 352.901 329.738C353.485 323.625 363.407 325.121 365.503 322.663L365.632 323.126C373.277 310.371 377.999 295.743 381.01 281.234C382.001 276.461 383.252 266.612 385.156 262.784C387.343 265.486 389.716 268.178 391.566 271.124C400.691 285.656 405.48 305.048 406.459 322.002C406.96 330.68 406.611 339.345 406.892 348.011C407.565 347.664 407.528 347.339 407.757 346.63C408.833 343.297 409.441 339.14 409.747 335.662C421.444 342.189 432.897 349.231 444.438 356.034C451.33 360.096 458.759 363.865 465.304 368.414C464.564 319.591 465.676 270.717 465.18 221.888Z"/>
	<path d="M385.156 262.784C387.343 265.486 389.716 268.178 391.566 271.124C400.691 285.656 405.48 305.048 406.459 322.002C406.96 330.68 406.611 339.345 406.892 348.011C406.562 354.993 403.401 371.504 399.112 376.792C398.578 377.45 398.273 377.577 397.454 377.699C396.55 376.464 396.716 372.377 396.57 370.733C395.205 355.432 386.053 339.415 374.397 329.495C371.535 327.06 368.197 325.899 365.634 323.757L365.632 323.126C373.277 310.371 377.999 295.743 381.01 281.234C382.001 276.461 383.252 266.612 385.156 262.784Z"/>
	<defs>
		<linearGradient id="gradient_0" gradientUnits="userSpaceOnUse" x1="354.18521" y1="237.92693" x2="255.81441" y2="226.80508">
			<stop offset="0" stop-color="#92B6D0"/>
			<stop offset="1" stop-color="#C2D5E3"/>
		</linearGradient>
	</defs>
	<path fill="url(#gradient_0)" d="M292.363 135.805C304.748 136.244 317.191 136.076 329.582 135.974C335.75 135.922 342.01 136.216 348.164 135.852C348.213 137.254 348.26 140.096 349.348 141.136C350.864 144.189 353.578 145.583 355.665 148.124C359.232 152.466 361.32 158.086 363.384 163.245C372.862 183.094 376.685 203.445 378.279 225.234C378.714 231.171 379.387 238.105 378.51 243.995C379.07 250.125 381.044 253.435 384.701 258.257C384.79 259.735 384.755 261.357 385.156 262.784C383.252 266.612 382.001 276.461 381.01 281.234C377.999 295.743 373.277 310.371 365.632 323.126L365.503 322.663C363.407 325.121 353.485 323.625 352.901 329.738C353.535 332.381 353.947 338.831 352.533 341.271C351.998 344.007 351.72 347.603 352.306 350.348C350.409 350.602 348.452 350.31 346.602 350.586C343.547 351.522 332.636 351.183 329.332 350.579C328.422 350.247 327.121 350.512 326.151 350.593C325.046 356.851 323.84 368.992 318.022 372.832C317.002 373.505 315.767 373.796 314.562 373.529C312.083 372.979 310.081 370.447 308.915 368.349C305.722 362.608 304.604 350.949 303.679 350.719C302.928 350.532 301.97 350.796 301.211 350.914C296.906 351.059 288.064 351.654 284.116 350.563C283.231 350.082 280.127 350.545 278.989 350.602C278.078 347.8 277.731 344.148 278.273 341.245C278.314 337.494 278.083 333.662 277.701 329.932C277.034 327.418 275.944 325.211 274.632 322.98C271.893 322.654 268.904 322.347 266.174 322.861C266.117 322.872 265.434 323.026 265.328 323.016C265.15 322.999 264.984 322.915 264.81 322.872C264.694 322.844 264.575 322.826 264.458 322.803C263.035 320.698 262.004 318.052 260.927 315.742Q256.712 306.639 253.413 297.165Q250.114 287.691 247.763 277.939C246.606 273.321 246.356 268.12 244.624 263.698L244.88 263.436C245.227 262.248 244.745 260.767 244.514 259.57C247.754 258.388 250.738 257.641 253.554 255.519C247.652 217.8 253.548 183.228 271.61 149.657Q273.205 147.522 274.684 145.306L275.407 145.018C277.569 142.577 279.013 139.124 280.516 136.238C284.334 136.29 288.445 136.595 292.233 136.159L292.363 135.805ZM292.363 135.805L292.233 136.159C288.445 136.595 284.334 136.29 280.516 136.238C279.013 139.124 277.569 142.577 275.407 145.018C282.204 145.014 341.29 144.514 343.045 145.189C343.5 146.491 344.245 149.234 345.209 150.133C347.999 157.903 350.719 165.659 352.418 173.755C359.481 207.427 357.47 253.634 342.626 285.103C338.628 293.58 332.675 300.959 326.429 307.881Q326.396 297.96 326.476 288.039C326.532 283.381 327.094 278.525 326.243 273.917C325.757 271.287 324.807 268.668 322.922 266.71C320.852 264.559 317.844 263.502 314.888 263.549C311.991 263.594 308.944 264.759 307.003 266.96C305.568 268.589 304.967 270.714 304.621 272.815C303.675 278.564 304.171 284.792 304.235 290.615L304.387 312.726C299.749 313.489 295.489 313.406 290.821 313.22Q292.355 316.883 293.99 320.502Q283.713 320.85 273.431 320.726C271.153 314.663 268.448 308.787 266.068 302.768Q262.105 292.655 259.157 282.201C258.425 279.628 257.309 276.553 257.201 273.907C255.507 267.929 254.397 261.671 253.554 255.519C250.738 257.641 247.754 258.388 244.514 259.57C244.745 260.767 245.227 262.248 244.88 263.436L244.624 263.698C246.356 268.12 246.606 273.321 247.763 277.939Q250.114 287.691 253.413 297.165Q256.712 306.639 260.927 315.742C262.004 318.052 263.035 320.698 264.458 322.803C264.575 322.826 264.694 322.844 264.81 322.872C264.984 322.915 265.15 322.999 265.328 323.016C265.434 323.026 266.117 322.872 266.174 322.861C268.904 322.347 271.893 322.654 274.632 322.98C275.944 325.211 277.034 327.418 277.701 329.932C278.083 333.662 278.314 337.494 278.273 341.245C277.731 344.148 278.078 347.8 278.989 350.602C280.127 350.545 283.231 350.082 284.116 350.563C288.064 351.654 296.906 351.059 301.211 350.914C301.97 350.796 302.928 350.532 303.679 350.719C304.604 350.949 305.722 362.608 308.915 368.349C310.081 370.447 312.083 372.979 314.562 373.529C315.767 373.796 317.002 373.505 318.022 372.832C323.84 368.992 325.046 356.851 326.151 350.593C327.121 350.512 328.422 350.247 329.332 350.579C332.636 351.183 343.547 351.522 346.602 350.586C348.452 350.31 350.409 350.602 352.306 350.348C351.72 347.603 351.998 344.007 352.533 341.271C353.947 338.831 353.535 332.381 352.901 329.738C353.485 323.625 363.407 325.121 365.503 322.663L365.632 323.126C373.277 310.371 377.999 295.743 381.01 281.234C382.001 276.461 383.252 266.612 385.156 262.784C384.755 261.357 384.79 259.735 384.701 258.257C381.044 253.435 379.07 250.125 378.51 243.995C379.387 238.105 378.714 231.171 378.279 225.234C376.685 203.445 372.862 183.094 363.384 163.245C361.32 158.086 359.232 152.466 355.665 148.124C353.578 145.583 350.864 144.189 349.348 141.136C348.26 140.096 348.213 137.254 348.164 135.852C342.01 136.216 335.75 135.922 329.582 135.974C317.191 136.076 304.748 136.244 292.363 135.805Z"/>
	<path fill="#FAFBFB" d="M274.684 145.306C281.218 145.383 287.811 145.509 294.342 145.343C291.86 151.006 288.404 156.204 285.591 161.708Q282.932 166.859 280.725 172.22Q278.518 177.58 276.779 183.11Q275.039 188.64 273.78 194.299Q272.521 199.957 271.752 205.703Q270.531 215.241 270.278 224.854C270.203 227.242 270.638 233.095 270.175 234.978L269.986 234.948C269.508 230.483 269.896 225.729 270.095 221.244C270.986 201.123 275.055 182.49 283.83 164.27Q286.318 159.119 289.203 154.18C290.633 151.715 292.86 148.946 293.673 146.258L293.253 145.953L293.571 145.743C292.002 145.145 283.951 145.628 281.736 145.631C280.334 148.512 278.039 155.863 278.749 158.784C278.772 158.878 278.815 158.967 278.849 159.059C279.711 158.28 280.297 156.703 280.659 155.615C281.095 154.3 282.571 152.474 283.782 151.786C283.865 151.739 283.955 151.707 284.042 151.668L284.379 151.852C283.826 155.626 281.23 159.898 279.725 163.433Q277.069 169.711 274.776 176.131C270.519 188.428 267.614 204.063 266.678 216.995C266.276 222.553 266.337 228.07 266.064 233.617C266.876 237.326 267.166 243.27 266.937 247.099L266.678 247.329C266.202 246.423 266.275 245.551 266.276 244.564L266.278 244.087C266.262 245.085 266.481 246.71 265.983 247.545C265.293 246.319 265.56 244.37 265.419 242.969C264.785 236.701 264.405 230.794 264.719 224.484C264.948 219.875 265.784 215.122 265.422 210.522C263.163 215.367 264.039 220.954 263.871 226.053C263.783 228.718 263.383 231.362 263.323 234.036C263.229 238.313 263.452 242.584 263.17 246.858C262.15 239.384 263.882 231.644 263.294 224.203C261.549 226.107 261.971 245.698 262.145 249.73Q262.2 251.02 262.283 252.309L261.737 252.269C260.695 245.987 262.831 236.434 261.646 230.98C261.467 231.07 261.298 231.181 261.109 231.248C260.972 231.296 260.46 231.327 260.32 231.341L259.714 231.405C259.687 231.591 259.663 231.777 259.634 231.962C259.086 235.484 256.954 241.534 255.604 244.902C254.986 246.445 253.92 248.041 253.579 249.664C253.44 250.323 253.575 250.965 253.661 251.618C254.199 255.709 254.72 259.743 255.544 263.789C256.13 266.664 257.195 269.892 257.412 272.788C257.443 273.205 257.326 273.518 257.201 273.907C255.507 267.929 254.397 261.671 253.554 255.519C247.652 217.8 253.548 183.228 271.61 149.657Q273.205 147.522 274.684 145.306Z"/>
	<path fill="#A2C0D6" d="M265.422 210.522C265.41 210.424 265.396 210.326 265.386 210.228C264.763 204.159 270.131 186.395 272.223 179.841C272.646 178.517 272.749 176.672 273.623 175.581L273.928 175.919C273.723 178.65 272.336 181.042 271.885 183.701C270.793 190.136 269.005 196.381 267.83 202.803C266.333 210.985 265.248 225.188 266.064 233.617C266.876 237.326 267.166 243.27 266.937 247.099L266.678 247.329C266.202 246.423 266.275 245.551 266.276 244.564L266.278 244.087C266.262 245.085 266.481 246.71 265.983 247.545C265.293 246.319 265.56 244.37 265.419 242.969C264.785 236.701 264.405 230.794 264.719 224.484C264.948 219.875 265.784 215.122 265.422 210.522Z"/>
	<path fill="#0A1C31" d="M314.157 167.802C314.485 167.75 314.498 167.74 314.889 167.723C323.838 167.336 332.816 171.489 339.209 177.526C346.388 184.306 350.699 193.021 350.96 202.967Q350.98 203.848 350.956 204.728Q350.932 205.609 350.864 206.487Q350.796 207.366 350.684 208.24Q350.573 209.114 350.418 209.981Q350.263 210.848 350.065 211.707Q349.867 212.565 349.627 213.413Q349.386 214.26 349.104 215.095Q348.821 215.929 348.498 216.748Q348.174 217.568 347.81 218.37Q347.446 219.172 347.043 219.956Q346.639 220.739 346.197 221.501Q345.755 222.263 345.276 223.002Q344.796 223.741 344.281 224.456Q343.765 225.17 343.214 225.858Q342.664 226.545 342.079 227.205Q341.495 227.864 340.879 228.494C334.737 234.846 325.775 239.346 316.854 239.481C308.176 239.192 300.907 238.136 293.904 232.638C286.111 226.52 280.628 218.052 279.486 208.098C278.328 198.001 281.39 188.951 287.718 181.11C294.642 172.531 303.445 168.994 314.157 167.802Z"/>
	<path fill="#A2C0D6" d="M311.606 179.848Q312.623 179.75 313.644 179.737Q314.666 179.723 315.685 179.793Q316.704 179.863 317.714 180.017Q318.724 180.171 319.718 180.407Q320.712 180.644 321.683 180.961Q322.654 181.278 323.596 181.674Q324.538 182.07 325.444 182.542Q326.35 183.014 327.214 183.559C331.482 186.25 335.314 190.75 336.371 195.773C337.543 201.338 336.569 208.317 333.423 213.114C329.606 218.934 323.669 221.21 317.142 222.582C312.784 223.1 307.746 221.894 303.978 219.663C298.797 216.596 296.767 212.499 294.224 207.287C293.511 205.826 292.496 204.191 292.153 202.603C291.248 198.415 293.331 193.149 295.647 189.723C299.434 184.123 305.093 181.116 311.606 179.848Z"/>
	<path fill="#FAFBFB" d="M296.993 196.974C297.788 197.109 298.513 197.251 299.225 197.649C300.082 198.127 300.618 198.874 300.834 199.833C301.251 201.687 300.242 203.277 299.321 204.781C298.456 204.678 297.615 204.566 296.84 204.138C296.083 203.719 295.539 203.031 295.337 202.18C294.881 200.252 295.984 198.508 296.993 196.974Z"/>
	<path fill="#FAFBFB" d="M306.041 184.151C307.52 184.001 309.039 184.091 310.434 184.649C311.517 185.082 312.328 185.868 312.731 186.968C313.31 188.548 312.976 190.423 312.278 191.909C310.892 194.853 308.474 196.406 305.554 197.528C303.643 197.995 301.978 197.396 300.143 196.882Q299.685 196.059 299.3 195.199Q299.158 194.871 299.05 194.531Q298.942 194.191 298.868 193.841Q298.794 193.492 298.755 193.137Q298.717 192.782 298.713 192.425Q298.71 192.068 298.742 191.713Q298.774 191.357 298.842 191.006Q298.909 190.656 299.011 190.314Q299.113 189.971 299.248 189.641C300.503 186.629 303.211 185.311 306.041 184.151Z"/>
	<path fill="#0A1C31" d="M292.363 135.805C304.748 136.244 317.191 136.076 329.582 135.974C335.75 135.922 342.01 136.216 348.164 135.852C348.213 137.254 348.26 140.096 349.348 141.136C350.864 144.189 353.578 145.583 355.665 148.124C359.232 152.466 361.32 158.086 363.384 163.245C372.862 183.094 376.685 203.445 378.279 225.234C378.714 231.171 379.387 238.105 378.51 243.995C379.07 250.125 381.044 253.435 384.701 258.257C384.79 259.735 384.755 261.357 385.156 262.784C383.252 266.612 382.001 276.461 381.01 281.234C377.999 295.743 373.277 310.371 365.632 323.126L365.503 322.663C363.407 325.121 353.485 323.625 352.901 329.738C353.535 332.381 353.947 338.831 352.533 341.271C351.998 344.007 351.72 347.603 352.306 350.348C350.409 350.602 348.452 350.31 346.602 350.586C343.547 351.522 332.636 351.183 329.332 350.579C328.422 350.247 327.121 350.512 326.151 350.593C325.046 356.851 323.84 368.992 318.022 372.832C317.002 373.505 315.767 373.796 314.562 373.529C312.083 372.979 310.081 370.447 308.915 368.349C305.722 362.608 304.604 350.949 303.679 350.719C302.928 350.532 301.97 350.796 301.211 350.914C296.906 351.059 288.064 351.654 284.116 350.563C283.231 350.082 280.127 350.545 278.989 350.602C278.078 347.8 277.731 344.148 278.273 341.245C278.314 337.494 278.083 333.662 277.701 329.932C277.034 327.418 275.944 325.211 274.632 322.98C271.893 322.654 268.904 322.347 266.174 322.861C266.117 322.872 265.434 323.026 265.328 323.016C265.15 322.999 264.984 322.915 264.81 322.872C264.694 322.844 264.575 322.826 264.458 322.803C263.035 320.698 262.004 318.052 260.927 315.742Q256.712 306.639 253.413 297.165Q250.114 287.691 247.763 277.939C246.606 273.321 246.356 268.12 244.624 263.698L244.88 263.436C245.227 262.248 244.745 260.767 244.514 259.57C247.754 258.388 250.738 257.641 253.554 255.519C254.397 261.671 255.507 267.929 257.201 273.907C257.309 276.553 258.425 279.628 259.157 282.201Q262.105 292.655 266.068 302.768C268.448 308.787 271.153 314.663 273.431 320.726Q283.713 320.85 293.99 320.502Q292.355 316.883 290.821 313.22C295.489 313.406 299.749 313.489 304.387 312.726L304.235 290.615C304.171 284.792 303.675 278.564 304.621 272.815C304.967 270.714 305.568 268.589 307.003 266.96C308.944 264.759 311.991 263.594 314.888 263.549C317.844 263.502 320.852 264.559 322.922 266.71C324.807 268.668 325.757 271.287 326.243 273.917C327.094 278.525 326.532 283.381 326.476 288.039Q326.396 297.96 326.429 307.881C332.675 300.959 338.628 293.58 342.626 285.103C357.47 253.634 359.481 207.427 352.418 173.755C350.719 165.659 347.999 157.903 345.209 150.133C344.245 149.234 343.5 146.491 343.045 145.189C341.29 144.514 282.204 145.014 275.407 145.018C277.569 142.577 279.013 139.124 280.516 136.238C284.334 136.29 288.445 136.595 292.233 136.159L292.363 135.805ZM277.701 329.932C278.083 333.662 278.314 337.494 278.273 341.245L283.9 341.291C283.821 337.366 283.893 333.39 284.055 329.467C281.954 329.707 279.812 329.79 277.701 329.932Z"/>
	<path fill="#A2C0D6" d="M343.045 145.189C344.532 145.218 346.043 145.189 347.525 145.293L347.945 145.775L348.327 145.514C347.681 145.559 347.464 145.451 346.956 145.883C346.808 147.303 348.065 149.78 348.582 151.145C347.564 150.789 346.276 150.144 345.209 150.133C344.245 149.234 343.5 146.491 343.045 145.189Z"/>
	<path fill="#A2C0D6" d="M348.045 329.78L352.901 329.738C353.535 332.381 353.947 338.831 352.533 341.271L348.033 341.231C347.929 337.413 347.994 333.599 348.045 329.78Z"/>
	<path fill="#A2C0D6" d="M378.51 243.995C378.482 244.035 378.456 244.076 378.427 244.116C377.141 245.927 375.204 262.443 374.505 266.09C371.648 280.99 367.488 294.961 361.771 309.011C360.322 312.57 358.742 317.738 355.698 320.254C354.915 320.902 354.328 320.996 353.346 320.888C352.906 318.081 359.099 307.381 360.482 304.04Q362.57 298.889 364.257 293.594C369.622 277.098 373.195 259.271 374.796 242.009C376.437 224.313 374.895 205.252 370.14 188.114C367.867 179.923 364.343 171.721 363.384 163.245C372.862 183.094 376.685 203.445 378.279 225.234C378.714 231.171 379.387 238.105 378.51 243.995Z"/>
	<path d="M313.867 272.234C314.444 272.231 315.093 272.189 315.652 272.369C316.529 272.65 317.188 273.275 317.608 274.078C318.963 276.668 318.998 342.177 318.458 349.048C318.104 353.546 317.042 357.832 315.63 362.103L315.165 361.817C312.006 355.725 311.524 347.817 311.422 341.087C311.239 328.953 311.931 316.77 311.962 304.621C311.984 295.817 311.083 283.507 312.284 275.086C312.466 273.808 312.989 273.138 313.867 272.234Z"/>
</svg>
