<?xml version="1.0" encoding="utf-8" ?><svg xmlns="http://www.w3.org/2000/svg" xmlns:xlink="http://www.w3.org/1999/xlink" width="1024" height="1024" viewBox="0 0 1024 1024"><path fill="#171616" d="M850.249 146.197C850.612 146.16 850.977 146.128 851.341 146.103C857.107 145.706 862.642 146.19 867.368 150.048C877.276 158.136 874.488 173.112 874.479 185.364L874.508 226.165L874.623 352.962L874.577 436.331C874.593 450.157 874.949 464.067 874.393 477.868C874.091 485.373 866.591 494.557 858.984 495.415C842.821 497.238 825.969 496.043 809.625 496.442C810.572 500.822 811.49 509.726 812.12 514.459C821.302 514.499 830.484 514.49 839.666 514.433C844.346 514.419 854.032 514.142 858.313 515.117C861.454 515.839 864.372 517.316 866.811 519.422C876.3 527.516 874.237 541.361 874.226 552.755L874.187 586.502L874.468 690.368L874.694 796.54L874.949 832.885C875.019 843.39 876.889 858.555 870.168 866.988C862.215 876.964 848.474 873.578 837.31 872.365L810.3 869.375L713.731 858.636L561.436 843.043C550.12 841.818 538.795 840.675 527.463 839.613C513.338 838.255 492.2 839.327 490.097 820.416C488.959 810.176 489.516 798.93 489.536 788.516L489.554 727.746C485.68 726.499 475.775 723.309 472.498 725.347C471.905 728.162 472.135 741.099 472.118 744.774L471.98 789.66C471.995 801.373 474.874 818.562 464.814 826.647C461.257 829.522 456.869 831.176 452.299 831.365C447.005 831.557 436.108 830.039 430.411 829.382C419.409 828.059 408.39 826.885 397.356 825.862L253.619 811.629L194.575 805.759C185.478 804.869 176.279 804.208 167.231 802.855C158.568 801.56 150.387 794.834 149.547 785.75C148.701 776.593 149.183 766.813 149.198 757.569L149.256 705.283L149.871 599.412C149.917 582.522 149.832 565.329 149.663 548.38C149.461 528.01 159.295 521.862 178.669 522.448C193.297 522.891 208.992 521.021 223.585 521.769L223.438 506.491C211.113 506.373 197.7 507.432 185.245 507.369C179.355 507.263 173.252 508.156 167.431 507.071C146.66 503.199 149.986 482.412 150.037 466.94L150.031 429.556L150.062 333.036C150.072 309.81 151.019 286.635 149.145 263.496C148.903 260.512 150.695 238.463 151.51 235.733C152.302 233.006 153.728 230.504 155.671 228.431C162.609 220.978 175.129 221.175 184.817 220.109L218.301 216.557L309.51 206.616L404.566 196.184C419.97 194.498 435.909 192.548 451.338 191.249C457.647 190.902 462.518 192.537 467.097 196.964C474.823 204.432 472.984 218.453 473.014 228.693L473.023 268.861C478.142 262.461 484.694 256.953 490.859 251.56C491.357 235.167 490.144 218.087 491.368 201.741C491.889 194.77 499.427 186.958 506.349 185.791C516.968 183.999 528.141 183.025 538.971 181.783L608.848 173.881L850.249 146.197Z"/><path fill="#FAA423" d="M385.381 705.744C357.473 699.442 324.002 679.144 303.125 659.799C261.624 621.342 239.436 571.382 237.135 515.122C234.511 457.647 255.017 401.515 294.071 359.265C339.296 310.4 387.503 292.432 452.744 289.941C437.869 307.244 420.116 321.847 400.268 333.104C393.76 327.216 385.155 318.889 376.861 316.515C368.368 317.979 362.452 323.514 358.433 331.04C352.863 341.47 365.726 347.997 371.479 354.781C376.293 360.458 378.707 364.097 381.22 371.339C378.432 373.306 366.865 379.606 366.038 380.974C365.845 383.175 370.103 391.087 371.377 395.418C373.854 397.888 375.452 398.683 378.449 400.191C380.116 407.204 380.453 408.104 387.053 410.357C392.645 421.987 395.077 419.664 404.967 413.534C410.526 410.087 413.735 409.101 416.57 402.871C423.915 401.492 425.306 399.505 429.086 393.512C432.54 392.105 441.123 390.581 439.374 385.309C434.792 371.496 427.534 361.328 414.29 354.562L410.859 346.865C439.925 347.33 459.598 368.765 489.258 371.922C528.411 376.089 554.552 357.858 583.664 335.834C589.778 340.326 596.698 345.473 602.385 350.437C608.063 355.226 617.015 366.366 621.577 372.317C646.347 404.631 661.59 439.547 665.032 480.258L665.529 486.354C632.081 505.833 596.709 524.495 562.678 543.128C552.479 548.725 542.334 554.419 532.244 560.209C527.844 562.702 520.184 567.337 515.902 569.214C505.696 575.323 495.408 581.292 485.04 587.121C478.925 590.583 470.768 594.476 465.504 598.819C463.128 600.78 460.87 606.123 459.451 609.007C449.354 636.848 442.475 669.673 455.685 697.838C458.403 703.554 461.881 708.875 466.026 713.658C442.524 714.17 420.04 713.758 396.903 708.726C394.193 708.137 387.85 706.779 385.381 705.744Z"/><path fill="#CF6C1F" d="M602.385 350.437C608.063 355.226 617.015 366.366 621.577 372.317C646.347 404.631 661.59 439.547 665.032 480.258L665.529 486.354C632.081 505.833 596.709 524.495 562.678 543.128C552.479 548.725 542.334 554.419 532.244 560.209C527.844 562.702 520.184 567.337 515.902 569.214C517.627 565.829 529.99 557.406 533.816 553.995C543.466 545.392 552.084 535.707 559.914 525.442C585.098 492.425 598.469 450.292 594.13 408.757C592.706 395.12 588.876 382.176 586.52 368.773C585.942 364.146 585.684 359.555 588.74 355.757C592.397 351.212 597.844 352.072 602.385 350.437Z"/><path fill="#CF6C1F" d="M385.381 705.744C385.186 704.085 381.566 695.962 380.973 693.526C372.128 657.198 404.474 635.848 432.937 622.863C442.012 618.723 451.576 611.294 459.451 609.007C449.354 636.848 442.475 669.673 455.685 697.838C458.403 703.554 461.881 708.875 466.026 713.658C442.524 714.17 420.04 713.758 396.903 708.726C394.193 708.137 387.85 706.779 385.381 705.744Z"/><path fill="#FF9B05" d="M853.224 160.715C856.62 160.021 859.152 161.68 859.573 165.201C860.433 172.385 860.009 179.844 859.995 187.107L859.917 231.906L860.072 416.313C860.071 423.109 861.248 476.743 858.72 479.526C857.501 480.867 854.794 481.17 853.091 481.356C847.164 482.005 840.883 481.559 834.905 481.569C825.712 481.576 816.522 481.85 807.346 482.391C802.669 464.945 797.346 448.353 789.691 431.915C786.74 425.577 781.615 423.732 775.35 426.928C763.972 432.733 753.075 439.496 741.857 445.63C721.058 456.781 700.16 467.748 679.168 478.53C673.403 428.437 654.8 387.945 621.336 350.032C611.479 339.201 606.862 335.07 595.328 325.847C597.019 324.25 598.98 322.677 600.784 321.18C616.914 307.805 632.792 294.092 649.616 281.585C653.474 278.717 658.21 275.408 661.198 271.692C662.148 267.894 661.007 262.834 656.606 261.884C603.261 250.363 561.18 215.626 505.319 242.235C505.143 232.587 505.121 222.909 505.014 213.258C504.97 209.337 504.686 204.402 507.036 201.097C513.818 197.982 584.334 191.285 595.355 190.012C681.259 179.79 767.216 170.024 853.224 160.715Z"/><path fill="#FF9B05" d="M813.077 528.533C822.721 529.197 851.992 527.456 857.744 530.854C859.121 532.761 859.648 537.56 859.656 539.954C859.727 559.862 859.797 579.827 859.888 599.728L860.104 744.615L860.254 818.674C860.305 830.341 860.555 842.539 860.399 854.224C860.839 854.981 858.867 858.247 857.978 858.408C848.945 860.045 826.553 856.55 818.805 855.709L761.923 849.662L570.42 829.701C550.697 827.421 530.626 825.92 510.943 823.233C507.234 822.64 504.346 820.645 504.198 816.586C503.817 806.137 504.092 795.399 504.196 784.946C504.494 766.841 504.414 748.732 503.956 730.631C535.487 738.52 575.331 741.028 607.14 739.239C663.942 736.044 713.119 714.605 753.14 674.232C759.76 667.554 765.625 662.361 772.141 655.004C802.741 620.456 816.066 574.245 813.077 528.533Z"/><path fill="#F9DB82" d="M771.297 444.649C773.628 443.383 776.047 442.014 778.405 440.824C809.877 508.666 813.012 604.806 750.107 656.616C740.613 664.435 730.295 670.374 719.153 675.472C696.21 685.992 671.222 691.296 645.984 691.004C583.288 690.487 518.656 653.267 478.151 606.912L489.609 600.586C500.433 594.654 511.505 587.487 522.381 581.24C551.769 564.417 581.335 547.904 611.071 531.704C624.265 525.162 641.124 515.375 653.888 508.064C657.34 505.671 664.058 502.315 667.932 500.243L693.819 486.441C719.759 472.724 745.586 458.793 771.297 444.649Z"/><path fill="#FAA423" d="M771.297 444.649C773.628 443.383 776.047 442.014 778.405 440.824C809.877 508.666 813.012 604.806 750.107 656.616C740.613 664.435 730.295 670.374 719.153 675.472C696.21 685.992 671.222 691.296 645.984 691.004C645.011 686.94 644.651 681.962 643.643 677.566L643.851 677.451C642.008 669.678 646.52 656.553 651.261 650.236C657.711 641.641 665.201 635.53 673.128 628.436C679.471 622.815 685.587 616.943 691.461 610.833C721.879 579.036 757.234 525.633 768.499 482.6C771.458 471.294 772.191 461.496 773.021 450.003C772.904 449.351 771.579 445.517 771.297 444.649Z"/><path fill="#F9DB82" d="M771.297 444.649C773.628 443.383 776.047 442.014 778.405 440.824C809.877 508.666 813.012 604.806 750.107 656.616C740.613 664.435 730.295 670.374 719.153 675.472C696.21 685.992 671.222 691.296 645.984 691.004C645.011 686.94 644.651 681.962 643.643 677.566L643.851 677.451C663.785 678.436 683.703 675.219 702.314 668.009C751.453 649.011 780.427 601.115 786.778 550.453C791.102 515.958 785.65 482.235 773.021 450.003C772.904 449.351 771.579 445.517 771.297 444.649Z"/><path fill="#FCF9DC" d="M478.151 606.912L489.609 600.586C492.802 605.508 501.702 613.717 506.103 617.684C537.17 645.61 574.989 664.944 615.819 673.772C624.323 675.577 634.9 677.177 643.643 677.566C644.651 681.962 645.011 686.94 645.984 691.004C583.288 690.487 518.656 653.267 478.151 606.912Z"/><path fill="#FCF9DC" d="M653.888 508.064C654.998 510.631 653.255 516.811 652.23 519.459C645.296 537.369 626.708 542.397 611.071 531.704C624.265 525.162 641.124 515.375 653.888 508.064Z"/><path fill="#FF9B05" d="M218.43 535.723L224.839 535.55C229.08 581.716 254.381 631.526 287.26 663.963C320.413 697.179 363.566 718.576 410.073 724.859C426.761 727.033 441.192 727.064 457.845 726.94C457.558 744.704 457.455 762.471 457.536 780.237C457.549 790.326 457.656 800.535 457.355 810.61C457.078 819.881 442.203 816.048 435.992 815.421L408.119 812.624L243.907 796.147L195.207 791.452C186.431 790.608 177.462 789.957 168.826 788.493C164.208 787.71 163.688 782.275 163.667 778.588C163.566 760.566 163.671 742.04 163.703 724.064L163.935 619.909L164.114 569.542C164.173 561.676 163.815 546.537 165.567 539.355C168.645 536.23 181.863 536.874 186.588 536.745C197.205 536.493 207.819 536.152 218.43 535.723Z"/><path fill="#FF9B05" d="M452.841 205.734C455.64 205.342 458.221 206.645 458.377 209.751C458.758 217.372 458.576 225.075 458.556 232.713L458.567 276.261C442.947 276.59 428.958 277.058 413.417 279.408C373.684 285.632 336.432 302.679 305.748 328.678C254.652 372.005 229.001 426.378 223.579 492.543C205.938 492.595 188.298 492.889 170.665 493.426C167.418 492.623 165.018 491.095 164.808 487.493C164.268 478.226 164.496 468.657 164.507 459.368L164.539 404.9L164.643 295.02C164.7 279.171 164.738 263.337 164.802 247.474C164.818 243.505 164.926 237.395 170.296 236.603C181.596 234.937 193.089 233.879 204.446 232.643L270.333 225.479C330.832 218.931 392.38 211.469 452.841 205.734Z"/><path fill="#CF6C1F" d="M471.595 613.172C494.82 642.394 512.211 657.003 544.601 675.743C553.088 680.165 562.489 685.064 571.341 688.624C611.313 704.697 656.834 708.347 698.233 695.458C704.241 693.553 710.129 691.291 715.867 688.684C704.71 697.224 686.358 706.78 673.108 711.821C617.609 732.937 555.93 728.755 499.01 716.005C496.496 715.442 490.495 714.517 488.553 713.711C487.826 713.646 485.749 713.46 485.143 713.113C459.611 698.498 458.352 662.674 464.154 637.3C466.279 628.007 468.701 621.138 471.595 613.172Z"/><path fill="#FAA423" d="M471.595 613.172C494.82 642.394 512.211 657.003 544.601 675.743C539.25 676.429 533.952 676.467 528.653 677.184C514.321 679.19 499.032 684.136 489.803 695.989C487.565 698.863 484.678 703.697 485.11 707.562C485.523 711.249 487.3 711.014 488.695 713.145L488.553 713.711C487.826 713.646 485.749 713.46 485.143 713.113C459.611 698.498 458.352 662.674 464.154 637.3C466.279 628.007 468.701 621.138 471.595 613.172Z"/><path fill="#527231" d="M520.01 290.369C548.56 276.429 573.201 271.217 605.223 273.009C614.785 273.544 627.951 274.891 637.119 274.985C620.861 286.613 606.13 299.47 591.177 312.65C583.046 319.817 570.768 331.503 562.143 337.436C559.565 341.245 541.158 350.966 536.692 353.153C510.934 365.771 484.548 362.624 459.443 349.956C444.318 342.325 432.785 336.288 415.13 336.474C435.659 327.995 456.978 321.177 477.358 311.88C491.307 305.517 506.22 296.323 520.01 290.369Z"/><path fill="#7DA144" d="M520.01 290.369C548.56 276.429 573.201 271.217 605.223 273.009C614.785 273.544 627.951 274.891 637.119 274.985C620.861 286.613 606.13 299.47 591.177 312.65C583.046 319.817 570.768 331.503 562.143 337.436C561.804 333.85 570.608 327.211 570.713 319.367C571.033 295.413 537.929 291.712 520.01 290.369Z"/><path fill="#7DA144" d="M468.002 290.9C483.118 273.515 499.143 254.104 521.784 246.84C552.213 237.078 583.829 249.13 611.957 260.629C615.334 262.01 618.756 263.421 622.01 265.081C567.637 263.335 551.718 265.538 503.139 289.538C484.756 300.669 463.439 309.487 443.201 316.526C452.894 307.906 459.255 299.751 468.002 290.9Z"/><path fill="#527231" d="M468.002 290.9C469.462 291.373 498.584 289.41 503.139 289.538C484.756 300.669 463.439 309.487 443.201 316.526C452.894 307.906 459.255 299.751 468.002 290.9Z"/><path fill="#7DA144" d="M381.346 326.972C385.892 329.893 389.582 333.59 393.486 337.321C390.451 339.71 389.555 340.36 388.705 344.07C390.106 347.617 390.443 348.055 393.126 350.671C396.17 350.624 401.22 348.299 402.949 350.463C408.173 357.004 411.477 373.177 411.498 380.962C408.488 385.099 406.389 387.386 401.243 388.797L394.871 389.095C389.727 384.679 390.288 380.293 389.023 374.028C388.309 370.6 387.26 367.251 385.893 364.028C382.171 355.196 376.448 348.663 369.225 342.548C372.221 339.633 374.656 336.711 377.36 333.544L381.346 326.972Z"/><path fill="#527231" d="M393.126 350.671C396.17 350.624 401.22 348.299 402.949 350.463C408.173 357.004 411.477 373.177 411.498 380.962C408.488 385.099 406.389 387.386 401.243 388.797C400.592 375.776 397.317 362.952 393.126 350.671Z"/><path fill="#527231" d="M381.346 326.972C385.892 329.893 389.582 333.59 393.486 337.321C390.451 339.71 389.555 340.36 388.705 344.07C387.341 342.096 379.433 335.185 377.36 333.544L381.346 326.972Z"/><path fill="#7DA144" d="M417.197 365.66C420.265 368.167 423.224 371.221 425.978 374.079C428.632 378.01 429.554 380.27 430.895 384.836C422.423 387.311 424.703 389.35 418.514 393.55C412.592 397.569 411.539 392.51 408.59 402.513C404.725 405.212 400.038 407.649 395.792 409.755C393.469 404.581 392.177 404.131 386.814 401.962C384.907 396.722 385.081 396.295 380.621 392.943L380.203 392.64C379.017 389.219 376.732 385.659 376.371 383.613C377.16 381.997 377.572 382.23 379.559 381.159L383.146 378.436C383.502 381.486 383.823 384.55 384.327 387.578C389.766 399.384 402.908 397.99 411.977 391.226C421.3 382.051 419.018 377.475 417.197 365.66Z"/><path fill="#527231" d="M417.197 365.66C420.265 368.167 423.224 371.221 425.978 374.079C423.629 380.718 419.714 389.784 411.977 391.226C421.3 382.051 419.018 377.475 417.197 365.66Z"/><path fill="#527231" d="M379.559 381.159L383.146 378.436C383.502 381.486 383.823 384.55 384.327 387.578C381.923 385.831 380.803 383.79 379.559 381.159Z"/><path fill="#7DA144" d="M372.403 326.028C372.12 330.067 367.7 333.668 364.866 336.356C364.171 332.602 369.755 328.141 372.403 326.028Z"/></svg>