<?xml version="1.0" encoding="utf-8" ?>
<svg xmlns="http://www.w3.org/2000/svg" xmlns:xlink="http://www.w3.org/1999/xlink" width="1024" height="1024">
	<path fill="#93BDDF" d="M266.894 864.062C271.41 862.917 284.368 861.242 288.648 863.573C288.793 863.652 288.917 863.763 289.052 863.858C284.632 865.609 279.761 865.474 275.079 865.535C273.946 865.45 274.345 865.445 273.384 865.48C270.61 865.583 269.175 865.705 266.894 864.062Z"/>
	<path fill="#7B97B6" d="M735.716 863.701C735.936 863.604 736.153 863.501 736.376 863.41C745.275 859.794 799.148 867.405 809.992 869.584C816.684 870.929 823.666 872.432 829.855 875.375C831.659 876.232 834.214 877.436 835.015 879.386C835.308 880.101 834.947 880.533 834.702 881.209C826.849 888.522 794.854 892.411 783.416 894.043Q747.992 899.057 712.366 902.349Q676.741 905.64 640.998 907.202C619.045 908.129 597.102 908.212 575.142 908.662C533.339 909.517 491.252 910.311 449.461 908.817L386.559 906.209C365.102 905.343 343.599 904.648 322.192 902.885C298.97 900.973 276.176 897.747 253.1 894.806C242.211 893.418 202.583 889.31 195.489 881.214C194.743 880.364 194.828 880.242 194.626 879.209C195.889 876.538 198.712 875.481 201.344 874.527C214.238 869.849 253.819 862.966 266.894 864.062C269.175 865.705 270.61 865.583 273.384 865.48C274.345 865.445 273.946 865.45 275.079 865.535C268.074 866.796 255.807 865.642 250.337 870.898C249.326 871.869 248.873 872.984 248.953 874.39C249.017 875.497 249.696 876.214 250.578 876.844C253.783 879.132 258.305 880.06 262.137 880.72C279.195 883.654 296.66 883.853 313.905 884.623Q350.709 886.394 387.546 887.23Q513.307 890.47 639.065 887.158L705.014 885.06C725.102 884.464 745.842 884.592 765.701 881.245C769.493 880.606 778.434 879.151 780.311 875.396C780.815 874.39 780.761 873.532 780.438 872.499C777.54 863.243 742.253 867.728 736.182 864.057C736.015 863.956 735.872 863.82 735.716 863.701Z"/>
	<path fill="#081B30" d="M290.357 807.103C284.361 799.735 273.135 791.718 265.668 785.296C258.657 779.265 252.144 772.491 245.798 765.771C193.497 710.383 160.911 648.681 146.391 573.73C144.552 564.232 142.074 554.401 141.083 544.8C140.211 536.347 140.401 527.799 140.333 519.312C140.254 509.319 140.035 499.291 140.341 489.302C143.348 391.064 189.427 301.343 260.421 234.809C316.317 182.425 383.881 152.42 459.161 140.1C481.446 136.453 498.003 134.086 520.784 134.853C587.998 137.118 646.027 152.717 704.332 186.449C720.304 195.69 736.066 205.732 750.44 217.338C765.644 229.614 780.135 244.068 793.443 258.357Q795.898 261.001 798.3 263.693Q800.702 266.384 803.05 269.123Q805.399 271.862 807.693 274.646Q809.986 277.431 812.225 280.26Q814.463 283.089 816.646 285.962Q818.828 288.835 820.953 291.751Q823.078 294.666 825.145 297.623Q827.212 300.58 829.22 303.577Q831.228 306.574 833.177 309.61Q835.125 312.647 837.013 315.721Q838.902 318.795 840.729 321.906Q842.556 325.016 844.322 328.163Q846.087 331.309 847.79 334.489Q849.493 337.67 851.133 340.883Q852.772 344.097 854.349 347.342Q855.925 350.587 857.436 353.863Q858.948 357.139 860.394 360.444Q861.841 363.749 863.222 367.082Q864.603 370.415 865.918 373.774Q867.233 377.134 868.482 380.518Q869.73 383.903 870.911 387.312Q872.093 390.721 873.206 394.152Q874.32 397.584 875.366 401.037Q876.412 404.49 877.389 407.962Q878.367 411.435 879.275 414.927Q880.184 418.418 881.023 421.927Q881.863 425.435 882.633 428.96Q883.403 432.484 884.103 436.023Q884.804 439.563 885.434 443.115Q886.064 446.667 886.624 450.231Q887.184 453.795 887.674 457.369Q888.163 460.944 888.582 464.527C890.948 485.414 891.129 510.825 890.37 531.844C889.764 548.596 886.095 564.628 882.597 580.963C865.819 659.304 830.557 718.653 774.491 775.439Q763.287 786.566 750.931 796.398C745.813 800.446 740.249 804.19 735.512 808.662C735.352 808.813 735.196 808.967 735.037 809.119C741.823 827.661 743.58 844.867 735.716 863.701C735.872 863.82 736.015 863.956 736.182 864.057C742.253 867.728 777.54 863.243 780.438 872.499C780.761 873.532 780.815 874.39 780.311 875.396C778.434 879.151 769.493 880.606 765.701 881.245C745.842 884.592 725.102 884.464 705.014 885.06L639.065 887.158Q513.307 890.47 387.546 887.23Q350.709 886.394 313.905 884.623C296.66 883.853 279.195 883.654 262.137 880.72C258.305 880.06 253.783 879.132 250.578 876.844C249.696 876.214 249.017 875.497 248.953 874.39C248.873 872.984 249.326 871.869 250.337 870.898C255.807 865.642 268.074 866.796 275.079 865.535C279.761 865.474 284.632 865.609 289.052 863.858C282.669 840.676 283.3 829.946 290.357 807.103Z"/>
	<path fill="#FDFEFD" d="M295.57 655.772C296.482 656.183 297.26 656.642 298.037 657.269C299.123 658.147 299.902 659.026 299.914 660.513C299.933 662.824 298.256 664.223 296.766 665.742C295.627 665.186 294.338 664.392 293.461 663.457C292.594 662.533 292.195 661.403 292.368 660.13C292.611 658.345 294.358 656.945 295.57 655.772Z"/>
	<path fill="#FDFEFD" d="M782.09 574.218C784.647 575.017 786.409 577.533 788.109 579.483C786.643 581.296 785.055 583.005 783.494 584.736C781.132 583.987 779.046 581.302 777.343 579.563C778.861 577.729 780.494 575.985 782.09 574.218Z"/>
	<path fill="#FDFEFD" d="M291.956 577.417C294.102 579.174 295.744 581.341 297.485 583.485C295.769 585.371 293.942 587.18 292.171 589.016C289.926 587.144 287.883 585.034 285.798 582.988L291.956 577.417Z"/>
	<path fill="#FDFEFD" d="M643.844 249.521C646.042 251.269 647.809 253.614 649.64 255.736L644.395 261.835C641.895 260.214 639.857 257.558 638.102 255.191L643.844 249.521Z"/>
	<path fill="#FDFEFD" d="M326.944 273.352C329.835 275.621 332.375 278.631 334.936 281.278C332.461 283.747 330.135 286.385 327.77 288.959C324.92 286.503 322.345 283.651 319.716 280.957C322.244 278.505 324.626 276.003 326.944 273.352Z"/>
	<path fill="#93BDDF" d="M567.116 547.453L574.57 547.543L574.531 565.016L567.012 565.091Q566.983 556.271 567.116 547.453Z"/>
	<path fill="#FDFEFD" d="M457.401 547.494L465.992 547.492L465.966 564.985C463.181 565.022 460.269 564.882 457.508 565.221L457.401 547.494Z"/>
	<path fill="#466E96" d="M532.108 532.499C531.944 526.622 531.766 520.649 532.445 514.8L532.715 521.007L552.825 521.054C550.877 524.618 549.392 528.697 548.431 532.644C543.031 532.297 537.522 532.507 532.108 532.499Z"/>
	<path fill="#5D81A8" d="M597.748 708.451C601.333 722.028 603.618 735.806 606.86 749.45C608.084 754.601 609.142 760.328 611.3 765.163C608.503 766.83 606.054 768.764 603.537 770.821C602.97 759.02 595.526 715.24 597.748 708.451Z"/>
	<path fill="#5D81A8" d="M433.62 706.89C435.527 716.935 428.749 758.169 427.015 770.959C424.472 769.235 421.913 767.533 419.437 765.713C422.628 759.691 423.773 751.785 425.176 745.154C427.85 732.521 429.935 719.26 433.62 706.89Z"/>
	<path fill="#FDFEFD" d="M713.199 317.367C715.346 319.577 716.098 323.6 717.44 326.364C719.233 330.056 726.033 331.498 729.634 332.656Q726.707 333.694 723.834 334.873C717.666 337.473 715.919 342.12 713.553 347.906C711.885 345.793 711.312 342.663 709.978 340.28C706.98 334.925 701.984 334.312 696.547 332.675C698.944 331.913 701.401 331.175 703.702 330.154C709.454 327.602 711.124 322.844 713.199 317.367Z"/>
	<path fill="#5D81A8" d="M531.987 547.292L549.98 547.476L550.003 565.308C543.954 564.339 538.583 564.545 532.498 565.145C532.059 559.186 532.007 553.264 531.987 547.292Z"/>
	<path fill="#3B608D" d="M549.98 547.476C555.702 547.33 561.394 547.169 567.116 547.453Q566.983 556.272 567.012 565.091C555.824 565.566 543.617 566.564 532.498 565.145C538.583 564.545 543.954 564.339 550.003 565.308L549.98 547.476Z"/>
	<path fill="#FDFEFD" d="M729.383 650.319C731.353 652.159 732.377 656.183 733.448 658.678C735.646 663.798 742.558 665.819 747.314 667.675C745.24 668.532 743.15 669.375 741.11 670.31C733.963 673.586 732.355 678.173 729.788 685.11C727.829 682.502 726.826 677.681 725.565 674.52C721.561 671.084 716.508 669.469 711.669 667.572C722.341 662.843 725.03 661.413 729.383 650.319Z"/>
	<path fill="#FDFEFD" d="M262.707 475.448C266.093 478.57 265.719 482.059 267.541 485.744C269.697 490.105 278.681 492.605 282.977 494.331C278.15 496.175 273.133 497.236 268.695 499.986C266.374 503.967 264.902 508.528 263.298 512.832C261.142 509.286 260.151 505.529 259.081 501.561C254.603 497.382 248.655 496.024 242.97 494.245C245.65 492.909 248.481 491.899 251.187 490.614C258.301 487.235 260.172 482.423 262.707 475.448Z"/>
	<path fill="#5D81A8" d="M465.992 547.492C476.787 547.051 487.781 546.493 498.573 547.247L498.509 564.994Q485.993 565.04 473.479 565.277C468.278 565.379 462.654 565.922 457.508 565.221C460.269 564.882 463.181 565.022 465.966 564.985L465.992 547.492Z"/>
	<path fill="#FDFEFD" d="M785.477 432.281C790.408 437.906 789.129 446.561 795.859 451.134C800.008 453.953 805.31 454.765 809.672 457.29C809.835 457.384 809.995 457.483 810.156 457.579C806.754 458.733 803.26 459.802 799.941 461.181C790.837 464.961 789.133 473.232 785.731 481.492C783.346 477.743 782.342 473.161 780.473 469.146C776.908 461.49 768.282 459.947 760.947 457.336C764.085 455.796 767.237 454.397 770.458 453.039C781.157 448.529 781.564 441.956 785.477 432.281Z"/>
	<path fill="#FDFEFD" d="M283.248 339.294C284.108 339.997 284.704 340.761 285.264 341.724C287.982 346.402 287.452 353.227 291.29 357.196C295.26 361.3 307.463 362.355 309.565 366.737C308.095 369.654 300.982 370.136 297.919 371.487C289.295 375.293 287.011 384.527 284.058 392.613C281.751 391.435 279.177 379.824 276.613 376.67C272.029 371.03 263.118 369.962 256.931 366.681C256.738 366.579 256.547 366.471 256.356 366.366C259.564 364.89 262.981 363.798 266.25 362.447C278.55 357.364 278.618 350.424 283.248 339.294Z"/>
	<path fill="#FDFEFD" d="M625.615 439.126C625.774 437.546 625.745 435.551 626.587 434.193C628.476 434.326 629.605 435.761 630.794 437.14C636.233 443.448 640.596 451.053 644.763 458.258C662.993 489.778 668.852 517.014 665.694 553.048C664.662 564.82 663.063 576.804 659.192 588.011C658.381 581.758 659.865 574.525 660.365 568.235C660.822 562.479 660.792 556.668 660.662 550.898C659.926 518.288 653.816 486.876 638.224 457.943C634.767 451.529 629.443 446.322 626.006 439.869L625.615 439.126Z"/>
	<path fill="#FDFEFD" d="M460.766 241.494C471.728 221.804 486.513 205.061 503.164 190.002C506.663 186.837 510.394 182.841 514.812 181.033C516.406 181.338 516.803 182.092 517.92 183.234L516.641 185.103C512.856 189.008 508.399 193.094 505.791 197.897C503.131 207.16 497.748 215.241 493.405 223.786C490.441 229.617 488.074 235.655 485.436 241.63C483.128 241.937 480.868 241.722 478.555 241.577C472.66 241.321 466.671 241.513 460.766 241.494Z"/>
	<path fill="#FBC349" d="M478.555 241.577C483.501 226.913 494.036 208.028 505.791 197.897C503.131 207.16 497.748 215.241 493.405 223.786C490.441 229.617 488.074 235.655 485.436 241.63C483.128 241.937 480.868 241.722 478.555 241.577Z"/>
	<path fill="#FDFEFD" d="M403.853 433.037C404.045 435.672 404.419 438.27 404.792 440.884C397.234 449.829 392.074 459.53 387.414 470.193C373.007 503.158 368.686 538.758 371.659 574.48C372.093 579.698 373.677 586.519 372.717 591.655Q370.028 582.663 368.129 573.471Q366.231 564.28 365.137 554.958C360.957 516.77 371 479.477 392.447 447.799C395.923 442.665 399.973 437.869 403.853 433.037Z"/>
	<path fill="#FE7D1D" d="M404.792 440.884L405.16 444.4C402.928 452.979 397.631 459.398 394.68 467.519C383.815 497.414 376.393 529.745 377.388 561.721C377.842 576.298 378.882 590.975 381.304 605.368C381.813 608.397 384.182 616.897 383.024 619.611C382.965 619.751 382.866 619.87 382.787 619.999C378.19 611.12 374.928 601.384 372.717 591.655C373.677 586.519 372.093 579.698 371.659 574.48C368.686 538.758 373.007 503.158 387.414 470.193C392.074 459.53 397.234 449.829 404.792 440.884Z"/>
	<path fill="#FE7D1D" d="M625.615 439.126L626.006 439.869C629.443 446.322 634.767 451.529 638.224 457.943C653.816 486.876 659.926 518.288 660.662 550.898C660.792 556.668 660.822 562.479 660.365 568.235C659.865 574.525 658.381 581.758 659.192 588.011C656.57 599.029 653.231 609.946 648.184 620.123C647.156 615.425 652.2 589.459 652.806 582.317Q653.129 578.689 653.348 575.053Q653.566 571.418 653.68 567.777Q653.793 564.137 653.802 560.495Q653.81 556.852 653.714 553.211Q653.617 549.57 653.416 545.934Q653.214 542.297 652.908 538.668Q652.602 535.038 652.191 531.419Q651.78 527.8 651.265 524.195Q650.75 520.589 650.131 517Q649.513 513.411 648.791 509.841Q648.069 506.271 647.244 502.723Q646.42 499.175 645.493 495.653Q644.566 492.13 643.539 488.636Q642.511 485.142 641.383 481.679Q640.255 478.216 639.027 474.787Q637.8 471.357 636.474 467.965C633.221 459.611 628.635 451.67 625.057 443.404L625.615 439.126Z"/>
	<path fill="#AB280D" d="M517.92 183.234C541.778 200.503 553.103 217.327 569.359 241.035C558.616 242.024 547.426 242.529 536.676 241.513Q531.683 225.121 525.477 209.149C522.471 201.214 519.087 193.218 516.641 185.103L517.92 183.234Z"/>
	<defs>
		<linearGradient id="gradient_0" gradientUnits="userSpaceOnUse" x1="522.68896" y1="526.98279" x2="511.25549" y2="526.18726">
			<stop offset="0" stop-color="#B22504"/>
			<stop offset="1" stop-color="#E15518"/>
		</linearGradient>
	</defs>
	<path fill="url(#gradient_0)" d="M515.233 456.032C517.043 457.344 518.07 458.61 519.274 460.482C519.302 460.527 519.332 460.571 519.361 460.615C521.075 485.74 520.75 511.191 520.743 536.375C520.739 550.344 521.553 565.082 520.111 578.964C519.415 585.666 517.791 592.037 515.639 598.407C507.816 576.992 511.047 558.085 510.427 535.883C510.165 522.717 508.593 468.223 511.585 458.83C512.01 457.494 514.076 456.677 515.233 456.032Z"/>
	<path fill="#FE7D1D" d="M510.427 535.883C510.165 522.717 508.593 468.223 511.585 458.83C512.01 457.494 514.076 456.677 515.233 456.032C516.35 481.832 515.28 507.893 515.524 533.732C513.835 534.484 512.157 535.23 510.427 535.883Z"/>
	<path fill="#DFECF4" d="M564.366 579.993L573.791 579.995Q578.257 612.654 580.934 645.509C581.57 652.685 583.183 661.101 582.363 668.219C580.379 678.01 582.898 687.645 583.179 697.526C578.488 700.504 575.492 705.685 571.316 709.331C571.005 705.851 571.339 702.472 570.039 699.166C568.32 688.177 571.676 675.383 570.307 663.924C570.018 661.512 570.094 659.923 568.091 658.342C571.395 631.526 568.011 606.561 564.366 579.993Z"/>
	<path fill="#FE7D1D" d="M505.791 197.897C508.399 193.094 512.856 189.008 516.641 185.103C519.087 193.218 522.471 201.214 525.477 209.149Q531.682 225.121 536.676 241.513C519.612 241.497 502.493 241.2 485.436 241.63C488.074 235.655 490.441 229.617 493.405 223.786C497.748 215.241 503.131 207.16 505.791 197.897Z"/>
	<path fill="#FDFEFD" d="M595.218 802.439C596.219 800.087 597.748 797.752 599.189 795.646Q600.075 794.379 601.022 793.158Q601.969 791.936 602.974 790.762Q603.98 789.589 605.042 788.466Q606.104 787.343 607.22 786.273Q608.336 785.204 609.503 784.191Q610.67 783.177 611.886 782.222Q613.101 781.267 614.362 780.373Q615.623 779.479 616.926 778.648Q618.229 777.817 619.571 777.051Q620.914 776.285 622.292 775.585Q623.67 774.886 625.081 774.255Q626.492 773.624 627.933 773.063Q629.373 772.503 630.839 772.013Q632.305 771.524 633.794 771.107Q635.282 770.69 636.789 770.346Q638.296 770.003 639.818 769.734C661.386 765.829 680.272 771.696 698.005 783.916C694.626 786.346 666.131 786.133 657.831 788.887C633.673 789.274 622.893 790.295 602.558 803.904C598.802 805.766 595.577 809.602 592.616 812.553C593.536 809.202 594.541 805.848 595.218 802.439Z"/>
	<path fill="#B6D0E4" d="M591.087 624.4C595.179 640.076 600.066 655.566 604.428 671.172C612.517 700.112 620.369 729.008 630.767 757.234C624.205 759.697 617.646 762.176 611.3 765.163C609.142 760.328 608.084 754.601 606.86 749.45C603.618 735.806 601.333 722.028 597.748 708.451C595.371 695.671 594.616 682.498 593.523 669.557C592.263 654.635 590.659 639.397 591.087 624.4Z"/>
	<path fill="#B6D0E4" d="M400.205 757.204C406.1 739.547 412.063 722.114 417.297 704.226C425.046 677.742 431.812 650.971 440.121 624.648C440.094 637.548 438.743 650.542 437.832 663.403C436.8 677.987 436.221 692.478 433.62 706.89C429.935 719.26 427.85 732.521 425.176 745.154C423.773 751.785 422.628 759.691 419.437 765.713Q409.971 761.12 400.205 757.204Z"/>
	<path fill="#FDFEFD" d="M307.485 868.936C302.242 852.134 298.608 835.675 304.174 818.407C310.099 800.028 322.922 785.478 340.088 776.765Q341.744 775.91 343.44 775.137Q345.137 774.365 346.869 773.676Q348.601 772.988 350.365 772.386Q352.129 771.783 353.92 771.268Q355.712 770.754 357.526 770.327Q359.341 769.901 361.174 769.565Q363.008 769.228 364.855 768.983Q366.703 768.737 368.56 768.582Q370.418 768.427 372.281 768.364Q374.144 768.301 376.007 768.33Q377.871 768.358 379.731 768.478Q381.591 768.598 383.443 768.81Q385.295 769.021 387.134 769.324Q388.973 769.626 390.796 770.018Q392.618 770.411 394.419 770.892Q396.219 771.374 397.994 771.943C413.619 777.089 428.377 788.68 435.79 803.541C436.428 806.881 437.205 810.149 438.072 813.436C423.138 798.074 407.75 789.102 385.704 788.905C365.677 788.725 346.543 795.787 332.246 809.894C318.764 823.196 308.723 844.764 309.003 863.923C309.012 864.479 309.066 865.034 309.111 865.589C308.604 866.733 308.141 867.868 307.485 868.936Z"/>
	<path fill="#7B97B6" d="M698.005 783.916C711.584 793.112 720.455 809.409 723.465 825.293C725.498 836.015 725.183 848.23 721.874 858.675C721.214 861.473 720.551 864.227 719.624 866.953C715.724 862.751 712.592 854.023 709.4 848.979C696.618 828.78 674.711 813.634 651.427 808.38C646.005 807.156 640.162 807.908 634.867 806.625C634.594 806.559 634.323 806.486 634.051 806.416C630.785 803.25 629.191 797.449 625.194 795.252C619.403 792.07 608.727 803.28 603.307 803.856C603.058 803.882 602.808 803.888 602.558 803.904C622.893 790.295 633.673 789.274 657.831 788.887C666.131 786.133 694.626 786.346 698.005 783.916Z"/>
	<path fill="#B6D0E4" d="M698.005 783.916C711.584 793.112 720.455 809.409 723.465 825.293C725.498 836.015 725.183 848.23 721.874 858.675C719.597 854.718 719.342 848.124 718.161 843.599C716.807 838.406 714.405 833.437 711.721 828.811C699.349 807.49 681.307 795.177 657.831 788.887C666.131 786.133 694.626 786.346 698.005 783.916Z"/>
	<path fill="#AB280D" d="M405.16 444.4C406.928 449.502 407.813 455.067 409.04 460.338Q412.159 473.944 416.057 487.348C421.548 506.075 428.443 519.64 435.913 537.308C414.188 548.944 397.089 570.66 390.026 594.15Q388.832 597.997 387.949 601.927Q387.067 605.857 386.502 609.845Q385.937 613.834 385.693 617.854Q385.449 621.875 385.527 625.902C384.462 623.966 383.576 622.063 382.787 619.999C382.866 619.87 382.965 619.751 383.024 619.611C384.182 616.897 381.813 608.397 381.304 605.368C378.882 590.975 377.842 576.298 377.388 561.721C376.393 529.745 383.815 497.414 394.68 467.519C397.631 459.398 402.928 452.979 405.16 444.4Z"/>
	<path fill="#AB280D" d="M625.057 443.404C628.635 451.67 633.221 459.611 636.474 467.965Q637.8 471.357 639.027 474.787Q640.255 478.216 641.383 481.679Q642.511 485.142 643.539 488.636Q644.566 492.13 645.493 495.653Q646.42 499.175 647.244 502.723Q648.069 506.271 648.791 509.841Q649.513 513.411 650.131 517Q650.75 520.589 651.265 524.195Q651.78 527.8 652.191 531.419Q652.602 535.038 652.908 538.668Q653.214 542.297 653.416 545.934Q653.617 549.57 653.714 553.211Q653.81 556.852 653.802 560.495Q653.793 564.137 653.68 567.777Q653.566 571.418 653.348 575.053Q653.129 578.689 652.806 582.317C652.2 589.459 647.156 615.425 648.184 620.123C647.146 622.479 646 624.789 644.885 627.109C645.824 619.339 644.924 611.266 643.28 603.646C636.694 573.121 620.425 553.418 594.724 536.744C605.975 514.994 613.509 492.145 619.44 468.427C621.517 460.124 622.569 451.607 625.057 443.404Z"/>
	<path fill="#3B608D" d="M564.258 255.6C568.919 255.721 573.459 255.362 578.102 255.017C584.826 262.708 589.593 274.951 593.388 284.48C609.366 324.6 616.747 365.147 613.867 408.333C611.4 445.331 603.77 482.028 588.776 516.022C586.399 521.411 583.973 528.468 579.819 532.65C579.229 532.829 578.767 532.995 578.146 533.005C568.245 532.601 558.339 533.401 548.431 532.644C549.392 528.697 550.877 524.618 552.825 521.054C554.759 518.952 556.024 514.897 557.207 512.239Q563.583 498.109 568.733 483.486Q573.883 468.864 577.769 453.857C591.737 401.221 591.273 350.393 578.575 297.606C575.876 286.384 573.515 273.832 567.714 263.749C566.645 260.998 565.442 258.304 564.258 255.6Z"/>
	<path fill="#93BDDF" d="M578.146 533.005L575.249 532.326C574.538 531.663 574.535 532.014 574.914 531.33C579.488 523.072 583.895 514.867 587.604 506.176C596.801 484.628 603.653 453.342 606.932 429.94C614.472 376.135 608.43 334.952 589.162 284.59C587.39 279.959 577.165 258.499 577.14 256.437C577.13 255.589 577.524 255.533 578.102 255.017C584.826 262.708 589.593 274.951 593.388 284.48C609.366 324.6 616.747 365.147 613.867 408.333C611.4 445.331 603.77 482.028 588.776 516.022C586.399 521.411 583.973 528.468 579.819 532.65C579.229 532.829 578.767 532.995 578.146 533.005Z"/>
	<path fill="#5D81A8" d="M540.942 872.888C551.879 868.918 577.253 835.125 587.769 824.76C601.603 811.126 614.854 806.337 634.051 806.416C634.323 806.486 634.594 806.559 634.867 806.625C640.162 807.908 646.005 807.156 651.427 808.38C674.711 813.634 696.618 828.78 709.4 848.979C712.592 854.023 715.724 862.751 719.624 866.953C719.401 867.775 719.474 868.574 718.66 868.993C711.592 872.629 562.017 873.704 540.942 872.888Z"/>
	<defs>
		<linearGradient id="gradient_1" gradientUnits="userSpaceOnUse" x1="501.81241" y1="403.15726" x2="409.28223" y2="380.14316">
			<stop offset="0" stop-color="#CAE2F1"/>
			<stop offset="1" stop-color="white"/>
		</linearGradient>
	</defs>
	<path fill="url(#gradient_1)" d="M451.658 255.33C461.875 256.022 471.944 255.686 482.167 255.491C481.373 258.3 479.75 260.895 478.383 263.465C449.823 314.294 437.602 368.795 446.639 426.913C448.639 439.771 451.823 452.268 455.327 464.787C460.604 483.646 468.236 501.409 474.669 519.835C468.086 520.474 461.645 521.016 455.021 520.911C456.633 524.228 458.823 527.867 459.427 531.514L458.948 532.84C456.158 532.995 453.336 532.986 450.541 533.046C439.076 512.506 431.287 490.771 425.551 467.995C410.791 409.383 410.317 345.315 434.034 288.865C438.965 277.128 445.142 266.246 451.658 255.33Z"/>
	<path fill="#93BDDF" d="M482.167 255.491C493.373 254.773 504.881 255.277 516.118 255.284C530.654 255.294 545.273 254.971 559.8 255.358L564.258 255.6C565.442 258.304 566.645 260.998 567.714 263.749C573.515 273.832 575.876 286.384 578.575 297.606C591.273 350.393 591.737 401.221 577.769 453.857Q573.883 468.864 568.733 483.486Q563.583 498.109 557.207 512.239C556.024 514.897 554.759 518.952 552.825 521.054L532.715 521.007L532.445 514.8L532.466 513.66L532.595 479.649C532.626 472.513 533.324 464.815 531.912 457.792C531.041 453.465 529.208 448.996 526.035 445.853C523.484 443.326 520.239 442.066 516.656 442.139C511.793 442.237 506.589 443.995 503.242 447.629C500.528 450.577 499.436 454.505 498.813 458.372C497.206 468.354 498.387 479.181 498.454 489.288C498.521 499.243 497.935 509.49 498.672 519.404C498.693 519.693 498.722 519.98 498.748 520.268C499.219 524.47 499.021 528.77 498.988 532.994C494.196 533.037 486.593 534.044 482.131 532.62C474.414 532.48 466.637 533.202 458.948 532.84L459.427 531.514C458.823 527.867 456.633 524.228 455.021 520.911C461.645 521.016 468.086 520.474 474.669 519.835C468.236 501.409 460.604 483.646 455.327 464.787C451.823 452.268 448.639 439.771 446.639 426.913C437.602 368.795 449.823 314.294 478.383 263.465C479.75 260.895 481.373 258.3 482.167 255.491Z"/>
	<path fill="#5D81A8" d="M498.748 520.268C499.219 524.47 499.021 528.77 498.988 532.994C494.196 533.037 486.593 534.044 482.131 532.62C479.895 528.906 478.08 524.878 476.146 520.997C483.682 521.078 491.222 520.624 498.748 520.268Z"/>
	<path fill="#B6D0E4" d="M482.167 255.491C493.373 254.773 504.881 255.277 516.118 255.284C530.654 255.294 545.273 254.971 559.8 255.358C559.946 258.141 560.955 260.519 562.094 263.027C534.179 263.411 506.294 262.508 478.383 263.465C479.75 260.895 481.373 258.3 482.167 255.491Z"/>
	<path fill="#5D81A8" d="M532.466 513.66C541.781 503.597 550.131 493.153 556.601 480.978C562.931 469.067 567.064 455.937 570.51 442.932Q571.591 438.943 572.562 434.926Q573.532 430.908 574.392 426.866Q575.251 422.823 575.999 418.759Q576.746 414.694 577.381 410.61Q578.017 406.526 578.539 402.427Q579.061 398.327 579.47 394.214Q579.879 390.102 580.174 385.979Q580.469 381.857 580.651 377.728Q580.832 373.599 580.9 369.467Q580.967 365.335 580.92 361.202Q580.874 357.069 580.713 352.94Q580.553 348.81 580.278 344.686Q580.004 340.562 579.615 336.448Q579.227 332.333 578.726 328.231Q578.224 324.128 577.61 320.041Q576.995 315.954 576.268 311.886C574.385 301.525 571.994 291.009 568.87 280.957C567.039 275.068 564.729 269.345 562.927 263.446C564.515 263.25 566.128 263.561 567.714 263.749C573.515 273.832 575.876 286.384 578.575 297.606C591.273 350.393 591.737 401.221 577.769 453.857Q573.883 468.864 568.733 483.486Q563.583 498.109 557.207 512.239C556.024 514.897 554.759 518.952 552.825 521.054L532.715 521.007L532.445 514.8L532.466 513.66Z"/>
	<path fill="#081B30" d="M511.26 291.692C523.846 290.281 537.179 294.21 547.44 301.45Q548.603 302.276 549.724 303.158Q550.844 304.041 551.92 304.977Q552.996 305.914 554.024 306.903Q555.053 307.891 556.031 308.929Q557.009 309.968 557.935 311.053Q558.86 312.138 559.731 313.268Q560.602 314.397 561.417 315.568Q562.231 316.74 562.986 317.95Q563.741 319.16 564.436 320.406Q565.131 321.651 565.763 322.93Q566.395 324.209 566.964 325.517Q567.532 326.825 568.035 328.16Q568.538 329.495 568.975 330.853Q569.411 332.211 569.78 333.589Q570.149 334.967 570.449 336.361Q570.75 337.755 570.981 339.163C573.436 354.139 569.972 368.695 561.068 380.965C550.701 395.25 536.657 401.57 519.659 404.299C504.747 405.5 491.809 401.834 480.065 392.432Q478.991 391.583 477.96 390.682Q476.93 389.781 475.945 388.83Q474.959 387.879 474.022 386.881Q473.085 385.883 472.198 384.841Q471.311 383.798 470.476 382.713Q469.641 381.627 468.861 380.502Q468.081 379.378 467.357 378.216Q466.633 377.054 465.966 375.858Q465.3 374.661 464.694 373.434Q464.088 372.207 463.542 370.951Q462.997 369.695 462.514 368.414Q462.031 367.133 461.611 365.83Q461.192 364.526 460.837 363.204Q460.483 361.882 460.193 360.544Q459.904 359.206 459.681 357.855Q459.458 356.504 459.301 355.144Q459.133 353.719 459.036 352.287Q458.939 350.855 458.914 349.421Q458.889 347.986 458.936 346.552Q458.982 345.118 459.101 343.687Q459.219 342.257 459.408 340.835Q459.598 339.413 459.858 338.001Q460.119 336.59 460.45 335.194Q460.78 333.797 461.18 332.419Q461.58 331.041 462.049 329.685Q462.517 328.328 463.052 326.997Q463.588 325.666 464.19 324.363Q464.791 323.06 465.457 321.789Q466.123 320.518 466.851 319.281Q467.58 318.045 468.369 316.847Q469.158 315.648 470.007 314.491Q470.855 313.334 471.76 312.22C481.684 299.836 495.669 293.375 511.26 291.692Z"/>
	<path fill="#5D81A8" d="M542.069 322.161C548.122 326.705 551.228 335.436 552.224 342.697C553.584 352.607 551.219 363.184 545.102 371.174C538.976 379.176 529.618 384.243 519.675 385.555Q518.776 385.671 517.872 385.744Q516.968 385.816 516.062 385.844Q515.155 385.872 514.249 385.855Q513.342 385.839 512.437 385.778Q511.533 385.717 510.632 385.612Q509.731 385.507 508.837 385.358Q507.943 385.209 507.057 385.016Q506.17 384.823 505.295 384.587Q504.419 384.351 503.556 384.073Q502.694 383.794 501.845 383.474Q500.997 383.153 500.166 382.791Q499.334 382.43 498.521 382.028Q497.709 381.626 496.916 381.184Q496.124 380.743 495.355 380.264Q494.585 379.784 493.84 379.267Q493.095 378.751 492.376 378.198C484.487 372.099 479.793 363.428 478.559 353.573C478.248 351.087 478.027 348.491 478.288 345.996C480.279 348.092 481.373 350.548 482.49 353.171C486.3 362.116 489.672 368.45 498.489 373.426C506.771 378.1 516.328 378.671 525.378 376.053C533.874 373.594 541.717 368.035 545.889 360.114C549.96 352.383 550.444 342.423 547.168 334.31C545.671 330.604 543.421 326.915 542.325 323.094C542.236 322.784 542.154 322.472 542.069 322.161Z"/>
	<path fill="#93BDDF" d="M478.288 345.996C478.748 336.313 481.983 327.774 488.811 320.778C495.665 313.754 504.826 310.085 514.612 310.076C525.292 310.068 534.626 314.657 542.069 322.161C542.154 322.472 542.236 322.784 542.325 323.094C543.421 326.915 545.671 330.604 547.168 334.31C550.444 342.423 549.96 352.383 545.889 360.114C541.717 368.035 533.874 373.594 525.378 376.053C516.328 378.671 506.771 378.1 498.489 373.426C489.672 368.45 486.3 362.116 482.49 353.171C481.373 350.548 480.279 348.092 478.288 345.996Z"/>
	<path fill="#FDFEFD" d="M486.623 337.268C487.99 337.666 489.265 338.086 490.498 338.815C491.82 339.597 492.958 340.906 493.18 342.477C493.555 345.125 492.053 347.221 490.644 349.3C488.976 349.329 487.222 349.256 485.771 348.35C484.413 347.503 483.822 346.352 483.607 344.797C483.215 341.968 485.106 339.426 486.623 337.268Z"/>
	<path fill="#FDFEFD" d="M500.223 316.56C502.483 316.456 504.456 316.44 506.617 317.188C508.747 317.926 510.597 319.151 511.502 321.292C512.529 323.725 512.193 326.643 511.191 329.025C509.069 334.066 504.913 336.341 500.149 338.329C498.158 338.856 496.12 338.669 494.125 338.191C492.442 337.787 491.04 336.888 490.201 335.343C488.94 333.018 489.099 329.952 489.808 327.485C491.398 321.952 495.405 319.095 500.223 316.56Z"/>
	<path fill="#B6D0E4" d="M495.48 579.84C496.302 579.959 497.319 579.84 497.88 580.515C503.259 586.991 501.309 613.509 514.295 615.265C516.704 615.591 519.004 614.9 520.877 613.36C528.352 607.216 530.759 580.586 533.164 579.587C533.411 579.484 534.655 579.502 535.001 579.515C535.628 579.539 536.269 579.646 536.89 579.729C539.917 579.946 542.896 580.022 545.931 579.995L547.657 579.93L564.366 579.993C568.011 606.561 571.395 631.526 568.091 658.342C570.094 659.923 570.018 661.512 570.307 663.924C571.676 675.383 568.32 688.177 570.039 699.166C571.339 702.472 571.005 705.851 571.316 709.331C575.492 705.685 578.488 700.504 583.179 697.526C582.898 687.645 580.379 678.01 582.363 668.219C583.701 682.749 593.115 798.456 595.218 802.439C594.541 805.848 593.536 809.202 592.616 812.553C595.577 809.602 598.802 805.766 602.558 803.904C602.808 803.888 603.058 803.882 603.307 803.856C608.727 803.28 619.403 792.07 625.194 795.252C629.191 797.449 630.785 803.25 634.051 806.416C614.854 806.337 601.603 811.126 587.769 824.76C577.253 835.125 551.879 868.918 540.942 872.888C535.115 873.297 529.074 873.012 523.224 873.017L489.77 872.971Q434.639 873.638 379.527 872.071L337.308 871.131C329.894 870.938 322.487 871.048 315.085 870.479C312.857 870.307 308.877 870.559 307.485 868.936C308.141 867.868 308.604 866.733 309.111 865.589C309.066 865.034 309.012 864.479 309.003 863.923C308.723 844.764 318.764 823.196 332.246 809.894C346.543 795.787 365.677 788.725 385.704 788.905C407.75 789.102 423.138 798.074 438.072 813.436C437.205 810.149 436.428 806.881 435.79 803.541C438.313 798.779 438.35 784.713 438.976 778.551Q441.162 758.982 443.107 739.388C444.281 726.26 444.969 713.085 446.328 699.975C447.873 677.785 448.982 655.472 450.99 633.329Q453.455 606.584 457.484 580.029L466.511 579.991L483.431 579.957L486.049 579.993C489.158 579.978 492.391 580.142 495.48 579.84Z"/>
	<path fill="#5D81A8" d="M309.111 865.589C327.334 839.058 344.137 814.999 378.344 808.607C397.818 804.968 418.06 806.526 434.697 818.11C449.784 828.616 478.189 868.935 489.77 872.971Q434.639 873.638 379.527 872.071L337.308 871.131C329.894 870.938 322.487 871.048 315.085 870.479C312.857 870.307 308.877 870.559 307.485 868.936C308.141 867.868 308.604 866.733 309.111 865.589Z"/>
	<path fill="#FDFEFD" d="M457.484 580.029L466.511 579.991C464.127 598.295 461.557 617.013 461.684 635.511C461.958 675.401 476.599 714.746 500.863 746.288C505.422 752.216 510.151 757.751 515.949 762.511C537.481 738.704 554.156 711.938 563.011 680.895C565.141 673.429 566.257 665.845 568.091 658.342C570.094 659.923 570.018 661.512 570.307 663.924C571.676 675.383 568.32 688.177 570.039 699.166C569.569 732.85 557.636 765.744 541.472 794.909C548.057 790.779 553.587 785.619 559.704 780.902C559.204 803.116 550.966 828.966 534.596 844.707C529.337 849.764 522.745 853.585 515.229 853.422C507.108 853.246 500.288 848.568 494.989 842.784C480.192 826.63 471.655 802.703 471.341 780.954C477.672 785.108 483.189 790.339 489.458 794.581C486.349 788.287 482.877 782.165 480.006 775.758Q477.937 771.132 476.081 766.417Q474.226 761.702 472.587 756.907Q470.948 752.112 469.529 747.247Q468.11 742.383 466.915 737.458Q465.719 732.534 464.749 727.561Q463.779 722.587 463.037 717.574Q462.294 712.562 461.781 707.521Q461.268 702.479 460.985 697.42C460.615 691.103 460.484 664.451 459.413 660.369C458.677 671.45 460.704 682.313 460.03 693.263C458.581 695.713 456.34 699.632 453.752 700.921L451.826 700.629C450.367 701.882 449.493 703.571 447.703 704.248C446.522 703.24 446.461 702.335 446.36 700.773C446.343 700.507 446.339 700.241 446.328 699.975C447.873 677.785 448.982 655.472 450.99 633.329Q453.455 606.584 457.484 580.029Z"/>
	<path fill="#FE7D1D" d="M495.48 579.84C496.302 579.959 497.319 579.84 497.88 580.515C503.259 586.991 501.309 613.509 514.295 615.265C516.704 615.591 519.004 614.9 520.877 613.36C528.352 607.216 530.759 580.586 533.164 579.587C533.411 579.484 534.655 579.502 535.001 579.515C535.628 579.539 536.269 579.646 536.89 579.729C539.917 579.946 542.896 580.022 545.931 579.995L547.657 579.93L564.366 579.993C568.011 606.561 571.395 631.526 568.091 658.342C566.257 665.845 565.141 673.429 563.011 680.895C554.156 711.938 537.481 738.704 515.949 762.511C510.151 757.751 505.422 752.216 500.863 746.288C476.599 714.746 461.958 675.401 461.684 635.511C461.557 617.013 464.127 598.295 466.511 579.991L483.431 579.957L486.049 579.993C489.158 579.978 492.391 580.142 495.48 579.84Z"/>
	<path fill="#FBC349" d="M483.431 579.957L486.049 579.993C484.43 605.425 482.964 626.505 495.503 649.971C498.723 655.996 502.387 661.936 506.917 667.074C509.505 670.009 512.292 672.462 515.361 674.874C529.653 666.93 539.112 644.98 543.429 629.764C548.756 610.986 545.954 598.347 545.931 579.995L547.657 579.93C548.763 583.385 549.688 586.811 550.302 590.39C557.084 629.923 537.874 664.985 515.993 696.013C507.455 685.604 500.18 675.176 494.265 663.066C482.103 638.161 474.046 607.064 483.431 579.957Z"/>
	<path fill="#FEEE83" d="M536.89 579.729C539.917 579.946 542.896 580.022 545.931 579.995C545.954 598.347 548.756 610.986 543.429 629.764C539.112 644.98 529.653 666.93 515.361 674.874C512.292 672.462 509.505 670.009 506.917 667.074C502.387 661.936 498.723 655.996 495.503 649.971C482.964 626.505 484.43 605.425 486.049 579.993C489.158 579.978 492.391 580.142 495.48 579.84C489.699 594.449 493.539 623.677 499.671 638.005C502.394 644.369 507.246 654.726 514.12 657.38C515.425 657.884 516.473 657.838 517.735 657.246C525.301 653.703 531.258 640.329 533.698 632.72C539.058 616.008 538.91 597.058 536.89 579.729Z"/>
	<path fill="#FDFEFD" d="M495.48 579.84C496.302 579.959 497.319 579.84 497.88 580.515C503.259 586.991 501.309 613.509 514.295 615.265C516.704 615.591 519.004 614.9 520.877 613.36C528.352 607.216 530.759 580.586 533.164 579.587C533.411 579.484 534.655 579.502 535.001 579.515C535.628 579.539 536.269 579.646 536.89 579.729C538.91 597.058 539.058 616.008 533.698 632.72C531.258 640.329 525.301 653.703 517.735 657.246C516.473 657.838 515.425 657.884 514.12 657.38C507.246 654.726 502.394 644.369 499.671 638.005C493.539 623.677 489.699 594.449 495.48 579.84Z"/>
</svg>
